<svg width="650" height="720" viewBox="0 0 650 720" fill="none" xmlns="http://www.w3.org/2000/svg">
<rect width="650" height="720" fill="#F5F5F5"/>
<g clip-path="url(#clip0_6_6233)">
<path d="M539.5 448.81L521.913 510.874C521.913 510.874 519.231 524.061 509.821 526.654L390.666 527.182C390.666 527.182 376.949 524.742 376.685 510.94L394.712 449.58C394.712 449.58 397.394 435.119 411.705 435.119H532.421C534.672 436.607 536.504 438.646 537.743 441.043C538.982 443.44 539.587 446.114 539.5 448.81Z" fill="#0EAADC"/>
<path d="M366.924 515.929H328.913C328.432 514.271 327.768 512.672 326.934 511.16C326.142 510.059 325.749 508.72 325.821 507.365C325.893 506.011 326.426 504.721 327.33 503.71C329.947 500.743 330.958 500.391 337.97 499.93C344.983 499.468 355.975 500.347 357.646 501.336C359.007 501.919 360.236 502.77 361.26 503.838C362.284 504.907 363.081 506.172 363.604 507.556C365.033 511.644 366.924 515.929 366.924 515.929Z" fill="white"/>
<path d="M113.16 250.113H330.782V415.251H113.16V250.113Z" fill="white"/>
<path d="M135.364 269.3H226.489V382.703H135.364V269.3Z" fill="#0EAADC"/>
<path d="M198.767 275.365C198.767 275.365 193.292 272.64 191.226 273.168C187.376 274.041 183.673 275.47 180.234 277.409C177.973 278.725 175.47 279.569 172.874 279.89C170.278 280.211 167.644 280.003 165.131 279.277C160.096 277.695 155.062 284.618 155.062 285.87C155.062 287.123 153.809 299.233 157.04 305.21C155.385 305.87 154.037 307.124 153.259 308.727C151.61 312.573 152.204 318.705 160.206 319.716C160.206 319.716 161.459 343.583 159.635 344.286C157.81 344.99 131.846 350.154 131.846 358.022V379.252H221.762L222.136 370.219C222.136 370.219 222.136 365.45 219.937 363.846L218.333 360.352C218.333 360.352 204.087 343.825 185.796 344.726L186.433 337.034C186.433 337.034 199.25 337.495 200.35 327.803C201.449 318.111 197.975 328.375 197.227 295.277C197.227 295.277 206.395 295.123 204.109 282.09C203.647 279.519 198.767 275.365 198.767 275.365Z" fill="white"/>
<path d="M110.5 231.455H328.122V253.652H110.5V231.455Z" fill="black"/>
<path d="M269.16 451.536C275.755 430.679 289.759 414.174 295.101 405.801C300.443 397.427 330.672 364.725 363.45 366.022C363.45 366.022 365.275 383.296 377.345 383.845C389.414 384.395 389.963 370.439 389.963 370.439C389.963 370.439 410.277 368.835 436.13 391.515C461.984 414.196 465.523 428.042 465.523 428.042L403.484 428.525C403.484 428.525 392.096 426.811 387.083 443.25C382.071 459.689 368.924 506.743 368.924 506.743C368.924 506.743 369.43 514.808 371.343 515.929H366.814C366.814 515.929 363.187 502.984 358.482 501.886C352.579 500.52 346.536 499.856 340.477 499.908C335.135 500.149 327.286 500.611 325.901 506.347C324.516 512.083 329.243 511.731 328.781 515.929H312.667C312.667 515.929 308.27 518.127 309.413 520.522C309.413 520.522 290.639 519.775 279.844 506.105C269.05 492.435 262.477 472.392 269.16 451.536ZM310.93 459.294C315.481 471.667 331.397 477.908 331.397 477.908L320.405 426.943C320.405 426.943 305.676 444.942 310.886 459.294H310.93Z" fill="black"/>
<path d="M194.37 449.052C194.37 449.052 190.764 445.118 194.04 435.272C197.315 425.426 193.71 414.965 181.267 413.647C168.824 412.328 162.58 424.13 164.207 431.998C165.834 439.866 166.405 442.151 164.207 449.58C162.009 457.008 163.24 478.436 184.873 477.777C204.307 477.293 201.91 457.228 194.37 449.052Z" fill="white"/>
<path d="M165.966 400.087C165.966 405.076 168.604 409.097 171.858 409.097C175.111 409.097 177.75 405.076 177.75 400.087C177.75 395.098 175.111 391.076 171.858 391.076C168.604 391.076 165.966 395.12 165.966 400.087Z" fill="white"/>
<path d="M190.808 497.512C207.824 497.029 210.243 493.864 210.243 493.864V495.49C213.562 495.205 227.83 494.897 228.072 511.27C228.467 529.819 210.243 530.676 210.243 530.676V533.006C210.243 533.006 207.143 535.753 190.171 535.753C173.199 535.753 171.396 532.698 171.396 532.698V493.864C171.396 493.864 173.771 498.018 190.808 497.512ZM222.136 509.556C221.279 500.633 210.484 501.556 210.484 501.556L210.243 499.996V524.544C215.035 523.248 222.971 518.479 222.136 509.556Z" fill="black"/>
<path d="M171.396 493.556C171.396 495.754 180.19 497.512 190.808 497.512C201.427 497.512 210.243 495.754 210.243 493.556C210.243 491.359 201.449 489.6 190.808 489.6C180.168 489.6 171.396 491.381 171.396 493.556Z" fill="white"/>
<path d="M450.442 478.392C449.013 483.249 451.168 488.128 455.235 489.381C459.302 490.633 463.765 487.644 465.194 482.787C466.623 477.93 464.49 473.051 460.401 471.799C456.312 470.546 451.871 473.513 450.442 478.392Z" fill="white"/>
<path opacity="0.2" d="M415.817 321.32L383.214 313.188C383.214 313.188 384.599 303.101 383.588 301.255L371.607 315.913C371.607 315.913 366.77 312.991 361.846 321.474C361.846 321.474 359.01 327.935 362.901 332.638C362.901 332.638 358.394 337.869 362.021 346.594C365.649 355.319 366.067 355.604 366.067 355.604C366.067 355.604 350.392 349.011 348.919 342.946C351.273 334.278 353.072 325.469 354.305 316.573C354.729 311.882 354.861 307.17 354.701 302.463C356.004 298.159 358.542 294.332 362 291.456C365.459 288.581 369.686 286.784 374.157 286.288C386.433 285.085 398.812 287.092 410.079 292.112C410.079 292.112 423.16 298.266 415.817 321.32Z" fill="black"/>
<path d="M419.994 322.946L383.258 313.188C383.258 313.188 385.039 304.397 384.226 303.606L375.564 319.298C375.564 319.298 372.618 315.628 370.2 315.474C368.039 315.458 365.949 316.238 364.327 317.665C362.705 319.092 361.665 321.066 361.406 323.21C359.977 329.649 362.681 333.737 368.859 334.638C368.859 334.638 365.1 338.836 367.452 346.638C368.579 350.666 370.095 354.574 371.98 358.308L367.232 356.506L363.517 366.022C363.517 366.022 365.495 380.395 374.926 383.494C384.357 386.593 388.711 376.747 390.03 370.439L391.854 360.901C391.854 360.901 404.781 363.692 410.871 352.11C416.96 340.528 419.994 322.946 419.994 322.946Z" fill="white"/>
<path opacity="0.2" d="M407.111 357.143L407.639 356.33L409.705 361.978L404.165 359.319L407.111 357.143Z" fill="black"/>
<path d="M337.421 515.929H334.255V509.182C334.255 509.182 337.883 512.259 337.421 515.929Z" fill="black"/>
<path d="M392.25 206.312L397.504 183.5L339.751 201.038L383.236 238.333L390.205 211.697L342.851 201.477L392.25 206.312Z" fill="#0EAADC"/>
<path d="M387.919 220.092L400.823 221.741L392.25 206.312L341.246 201.06L390.205 211.697L387.919 220.092Z" fill="#0EAADC"/>
<path d="M148.863 237.938C148.863 238.477 149.022 239.004 149.322 239.452C149.622 239.9 150.048 240.249 150.546 240.456C151.044 240.662 151.592 240.716 152.12 240.611C152.649 240.506 153.135 240.246 153.517 239.865C153.898 239.484 154.157 238.998 154.263 238.47C154.368 237.941 154.314 237.393 154.107 236.895C153.901 236.397 153.552 235.971 153.103 235.672C152.655 235.373 152.128 235.213 151.589 235.213C150.866 235.213 150.172 235.5 149.661 236.011C149.15 236.522 148.863 237.215 148.863 237.938Z" fill="white"/>
<path d="M138.2 237.938C138.2 238.661 138.487 239.354 138.998 239.865C139.51 240.376 140.203 240.663 140.926 240.663C141.649 240.663 142.342 240.376 142.854 239.865C143.365 239.354 143.652 238.661 143.652 237.938C143.652 237.215 143.365 236.522 142.854 236.011C142.342 235.5 141.649 235.213 140.926 235.213C140.203 235.213 139.51 235.5 138.998 236.011C138.487 236.522 138.2 237.215 138.2 237.938Z" fill="white"/>
<path d="M128.065 237.938C128.065 238.661 128.353 239.354 128.864 239.865C129.375 240.376 130.068 240.663 130.791 240.663C131.514 240.663 132.208 240.376 132.719 239.865C133.23 239.354 133.517 238.661 133.517 237.938C133.517 237.215 133.23 236.522 132.719 236.011C132.208 235.5 131.514 235.213 130.791 235.213C130.068 235.213 129.375 235.5 128.864 236.011C128.353 236.522 128.065 237.215 128.065 237.938Z" fill="white"/>
<path d="M485.551 363.868C486.386 363.341 486.386 362.857 486.1 362.571L479.219 355.693C479.153 355.604 479.069 355.531 478.972 355.479C478.875 355.426 478.768 355.395 478.658 355.387C478.548 355.379 478.438 355.395 478.334 355.433C478.231 355.472 478.137 355.532 478.06 355.61C477.982 355.688 477.921 355.782 477.882 355.885C477.844 355.988 477.828 356.099 477.836 356.209C477.844 356.318 477.875 356.425 477.928 356.522C477.981 356.619 478.053 356.703 478.142 356.769L485.023 363.648C485.166 363.783 485.354 363.861 485.551 363.868Z" fill="black"/>
<path d="M478.692 363.868C479.219 363.648 486.101 356.769 486.101 356.769C486.212 356.621 486.266 356.438 486.253 356.253C486.24 356.069 486.16 355.895 486.029 355.764C485.898 355.633 485.724 355.554 485.539 355.541C485.355 355.527 485.172 355.581 485.024 355.692L478.142 362.571C478.006 362.718 477.931 362.91 477.931 363.11C477.931 363.31 478.006 363.502 478.142 363.648C478.294 363.784 478.488 363.862 478.692 363.868Z" fill="black"/>
<path d="M491.772 351.407C492.429 351.407 493.071 351.212 493.617 350.848C494.163 350.483 494.588 349.965 494.84 349.358C495.091 348.752 495.157 348.085 495.029 347.441C494.9 346.797 494.584 346.206 494.12 345.742C493.656 345.277 493.064 344.961 492.42 344.833C491.776 344.705 491.109 344.771 490.502 345.022C489.896 345.273 489.377 345.699 489.012 346.244C488.648 346.79 488.453 347.432 488.453 348.088C488.458 348.967 488.81 349.807 489.432 350.428C490.053 351.049 490.894 351.401 491.772 351.407ZM491.772 346.264C492.252 346.27 492.711 346.465 493.049 346.806C493.386 347.148 493.575 347.608 493.575 348.088C493.575 348.566 493.385 349.025 493.047 349.363C492.709 349.7 492.25 349.89 491.772 349.89C491.294 349.89 490.836 349.7 490.497 349.363C490.159 349.025 489.97 348.566 489.97 348.088C489.97 347.608 490.159 347.148 490.496 346.806C490.834 346.465 491.292 346.27 491.772 346.264Z" fill="black"/>
<path d="M134.485 455.14C135.024 455.14 135.551 454.98 135.999 454.681C136.448 454.381 136.797 453.956 137.004 453.458C137.21 452.96 137.264 452.412 137.159 451.883C137.054 451.354 136.794 450.869 136.413 450.488C136.032 450.107 135.546 449.847 135.017 449.742C134.488 449.637 133.94 449.691 133.442 449.897C132.944 450.103 132.518 450.453 132.218 450.901C131.919 451.349 131.759 451.876 131.759 452.415C131.765 453.136 132.054 453.826 132.564 454.335C133.074 454.845 133.764 455.134 134.485 455.14ZM134.485 451.206C134.724 451.206 134.958 451.277 135.157 451.41C135.356 451.543 135.511 451.731 135.602 451.952C135.694 452.173 135.718 452.416 135.671 452.651C135.624 452.885 135.509 453.1 135.34 453.269C135.171 453.438 134.956 453.554 134.721 453.6C134.486 453.647 134.243 453.623 134.022 453.532C133.801 453.44 133.612 453.285 133.48 453.086C133.347 452.888 133.276 452.654 133.276 452.415C133.276 452.094 133.404 451.787 133.63 451.56C133.857 451.333 134.164 451.206 134.485 451.206Z" fill="black"/>
<path d="M401.022 222.4C401.769 222.114 401.901 221.653 401.703 221.279L393.371 205.895C392.777 205.499 339.817 200.225 339.817 200.225C339.633 200.236 339.459 200.312 339.326 200.441C339.194 200.57 339.112 200.742 339.096 200.926C339.08 201.11 339.131 201.294 339.239 201.443C339.347 201.593 339.506 201.699 339.685 201.741L392.228 206.95L400.362 221.938C400.414 222.072 400.504 222.187 400.622 222.269C400.739 222.351 400.878 222.397 401.022 222.4Z" fill="black"/>
<path d="M400.824 222.51C401.637 221.763 401.571 221.411 401.329 221.191L390.601 211.082C390.448 210.975 390.262 210.928 390.077 210.948C389.892 210.968 389.721 211.055 389.595 211.191C389.469 211.328 389.397 211.506 389.392 211.692C389.387 211.878 389.449 212.059 389.567 212.202L398.603 220.708L388.007 219.345C387.817 219.341 387.633 219.407 387.489 219.531C387.346 219.654 387.252 219.827 387.228 220.015C387.203 220.202 387.249 220.393 387.356 220.549C387.463 220.705 387.625 220.817 387.809 220.861L400.714 222.51H400.824Z" fill="black"/>
<path d="M392.25 207.082C392.423 207.081 392.591 207.023 392.727 206.915C392.862 206.807 392.958 206.657 392.997 206.488L398.23 183.676C397.284 182.775 339.092 200.335 339.092 200.335C338.924 200.384 338.778 200.49 338.678 200.634C338.578 200.777 338.53 200.951 338.542 201.126C338.557 201.302 338.634 201.466 338.759 201.591C338.883 201.716 339.048 201.792 339.224 201.807L392.184 207.06L392.25 207.082ZM396.471 184.621L391.656 205.499L343.181 200.686L396.471 184.621Z" fill="black"/>
<path d="M383.236 239.103C383.962 238.531 390.821 211.829 390.821 211.829C390.227 210.906 339.466 200.313 339.466 200.313C339.3 200.285 339.13 200.31 338.98 200.385C338.83 200.46 338.707 200.581 338.63 200.73C338.555 200.879 338.532 201.048 338.564 201.211C338.596 201.374 338.681 201.522 338.806 201.631L382.775 238.993C382.913 239.077 383.075 239.116 383.236 239.103ZM389.216 212.224L382.863 236.971L342.126 202.401L389.216 212.224Z" fill="black"/>
<path d="M514.812 417.669C516.624 416.003 518.26 414.154 519.692 412.152C519.772 412.075 519.834 411.982 519.874 411.879C519.915 411.776 519.932 411.665 519.926 411.554C519.92 411.444 519.889 411.336 519.837 411.238C519.785 411.14 519.713 411.055 519.625 410.987C519.537 410.92 519.435 410.873 519.327 410.848C519.219 410.824 519.107 410.823 518.998 410.846C518.89 410.869 518.788 410.915 518.699 410.981C518.61 411.047 518.536 411.132 518.483 411.229C517.161 413.024 515.745 414.748 514.24 416.394C514.099 416.538 514.02 416.731 514.02 416.932C514.02 417.134 514.099 417.327 514.24 417.471C514.397 417.61 514.602 417.681 514.812 417.669ZM522.88 406.856C524.437 404.916 525.772 402.807 526.859 400.57C526.952 400.389 526.969 400.179 526.907 399.986C526.845 399.792 526.71 399.631 526.529 399.537C526.441 399.492 526.346 399.464 526.247 399.456C526.148 399.448 526.049 399.46 525.955 399.491C525.861 399.522 525.774 399.571 525.699 399.635C525.624 399.7 525.562 399.778 525.518 399.867C524.507 401.845 523.32 403.801 522.242 405.713C522.19 405.796 522.155 405.89 522.139 405.987C522.123 406.084 522.126 406.184 522.148 406.28C522.17 406.376 522.212 406.466 522.27 406.546C522.328 406.626 522.4 406.694 522.485 406.746C522.601 406.825 522.74 406.864 522.88 406.856ZM528.97 394.834C530.266 392.684 531.272 390.37 531.959 387.955C532.015 387.763 531.993 387.557 531.898 387.38C531.804 387.204 531.644 387.071 531.454 387.01C531.359 386.977 531.258 386.963 531.157 386.971C531.056 386.978 530.959 387.007 530.87 387.054C530.781 387.102 530.703 387.167 530.641 387.247C530.578 387.326 530.533 387.418 530.509 387.516C529.871 389.713 529.102 391.735 528.31 393.801C528.27 393.892 528.249 393.99 528.247 394.089C528.246 394.188 528.264 394.286 528.3 394.378C528.337 394.47 528.392 394.554 528.462 394.625C528.532 394.696 528.614 394.752 528.706 394.79C528.79 394.821 528.88 394.836 528.97 394.834ZM532.905 381.955C533.081 381.954 533.251 381.892 533.388 381.78C533.524 381.668 533.617 381.513 533.652 381.34C534.114 379.142 534.466 376.945 534.729 374.747C534.742 374.646 534.733 374.543 534.706 374.445C534.678 374.347 534.631 374.256 534.568 374.176C534.504 374.096 534.426 374.03 534.336 373.981C534.247 373.931 534.149 373.901 534.048 373.89C533.849 373.882 533.655 373.947 533.501 374.072C533.347 374.198 533.245 374.375 533.213 374.571C532.971 376.769 532.619 378.966 532.157 381.164C532.135 381.262 532.132 381.364 532.15 381.463C532.168 381.563 532.207 381.657 532.262 381.741C532.317 381.826 532.389 381.898 532.473 381.953C532.558 382.009 532.652 382.047 532.751 382.065L532.905 381.955ZM534.422 368.571C534.622 368.571 534.814 368.493 534.958 368.354C535.102 368.214 535.185 368.024 535.191 367.824V366.264C535.191 364.527 535.191 362.769 535.015 361.011C535.015 360.615 534.685 360.352 534.202 360.308C534.001 360.325 533.816 360.419 533.684 360.571C533.553 360.723 533.486 360.92 533.498 361.121C533.63 362.835 533.674 364.571 533.674 366.264V367.802C533.671 367.9 533.688 367.998 533.722 368.09C533.757 368.181 533.81 368.265 533.878 368.337C533.945 368.408 534.026 368.466 534.115 368.506C534.205 368.546 534.302 368.568 534.4 368.571H534.422ZM533.498 355.121C533.605 355.119 533.711 355.094 533.808 355.049C533.905 355.003 533.991 354.938 534.062 354.857C534.132 354.777 534.184 354.682 534.216 354.58C534.248 354.478 534.258 354.37 534.246 354.264C533.894 352.066 533.433 349.868 532.883 347.671C532.836 347.478 532.715 347.313 532.546 347.21C532.377 347.107 532.174 347.075 531.981 347.121C531.885 347.142 531.793 347.182 531.712 347.239C531.632 347.296 531.564 347.369 531.512 347.453C531.461 347.538 531.427 347.632 531.413 347.73C531.4 347.827 531.406 347.927 531.432 348.022C531.959 350.22 532.399 352.418 532.751 354.616C532.8 354.772 532.901 354.907 533.037 354.999C533.172 355.09 533.335 355.134 533.498 355.121ZM530.288 341.935C530.926 341.759 531.146 341.341 531.014 340.946C530.311 338.748 529.519 336.55 528.662 334.572C528.567 334.417 528.419 334.3 528.246 334.243C528.072 334.185 527.885 334.192 527.715 334.26C527.546 334.329 527.407 334.456 527.323 334.617C527.239 334.779 527.214 334.966 527.255 335.144C528.112 337.209 528.882 339.319 529.585 341.407C529.606 341.58 529.689 341.74 529.818 341.857C529.947 341.974 530.114 342.04 530.288 342.044V341.935ZM525.189 329.452C525.892 329.21 526.045 328.748 525.848 328.375C525.056 326.748 524.199 325.1 523.298 323.474C523.1 323.1 522.88 322.726 522.66 322.375C522.609 322.29 522.543 322.215 522.464 322.156C522.384 322.097 522.294 322.053 522.198 322.029C522.102 322.004 522.002 321.999 521.904 322.013C521.806 322.027 521.712 322.061 521.627 322.111C521.542 322.162 521.467 322.228 521.408 322.308C521.348 322.387 521.306 322.477 521.281 322.573C521.257 322.669 521.251 322.769 521.265 322.867C521.279 322.965 521.313 323.059 521.363 323.144L521.978 324.199C522.858 325.825 523.715 327.452 524.507 329.034C524.552 329.181 524.642 329.311 524.764 329.406C524.886 329.5 525.034 329.555 525.189 329.561V329.452ZM462.159 322.463C463.017 321.584 462.819 321.144 462.445 321.012C460.892 320.379 459.501 319.402 458.378 318.155C458.06 317.835 457.759 317.497 457.477 317.144C457.331 317.008 457.138 316.933 456.938 316.933C456.738 316.933 456.546 317.008 456.4 317.144C456.265 317.287 456.191 317.476 456.191 317.672C456.191 317.868 456.265 318.056 456.4 318.199C456.703 318.582 457.026 318.948 457.367 319.298C458.65 320.695 460.227 321.791 461.984 322.507L462.159 322.463ZM468.755 322.463C471.064 321.667 473.173 320.377 474.932 318.683C475.051 318.539 475.113 318.358 475.108 318.172C475.103 317.986 475.031 317.808 474.905 317.672C474.779 317.535 474.607 317.448 474.422 317.428C474.238 317.408 474.052 317.455 473.899 317.562C472.35 319.057 470.52 320.23 468.513 321.012C468.326 321.082 468.172 321.222 468.086 321.402C468 321.583 467.988 321.79 468.052 321.979C468.087 322.14 468.175 322.284 468.303 322.388C468.431 322.492 468.59 322.549 468.755 322.551V322.463ZM518.088 318.067C518.879 317.606 518.923 317.144 518.659 316.815C517.166 315.073 515.534 313.456 513.778 311.98C513.636 311.845 513.447 311.77 513.251 311.77C513.055 311.77 512.866 311.845 512.723 311.98C512.651 312.049 512.593 312.133 512.554 312.225C512.514 312.318 512.494 312.417 512.494 312.518C512.494 312.618 512.514 312.718 512.554 312.811C512.593 312.903 512.651 312.987 512.723 313.056C514.407 314.48 515.974 316.038 517.406 317.716C517.469 317.843 517.566 317.952 517.686 318.029C517.806 318.107 517.945 318.15 518.088 318.155V318.067ZM478.78 313.672C480.404 311.764 481.758 309.642 482.803 307.364C482.845 307.275 482.868 307.178 482.873 307.079C482.877 306.981 482.862 306.882 482.829 306.789C482.795 306.696 482.743 306.611 482.677 306.538C482.61 306.465 482.53 306.406 482.44 306.364C482.351 306.322 482.254 306.299 482.155 306.294C482.056 306.29 481.958 306.305 481.865 306.339C481.772 306.372 481.686 306.424 481.614 306.49C481.541 306.557 481.481 306.637 481.44 306.727C480.483 308.724 479.381 310.649 478.142 312.485C478.032 312.648 477.991 312.849 478.028 313.042C478.065 313.236 478.178 313.407 478.34 313.518C478.386 313.6 478.45 313.672 478.525 313.729C478.601 313.786 478.687 313.826 478.78 313.848V313.672ZM454.047 312.331C454.152 312.328 454.256 312.304 454.351 312.26C454.446 312.216 454.532 312.153 454.602 312.075C454.672 311.997 454.725 311.905 454.758 311.806C454.791 311.706 454.804 311.601 454.795 311.496C454.755 310.49 454.942 309.488 455.341 308.563C455.741 307.639 456.343 306.816 457.103 306.155C457.244 306.012 457.323 305.818 457.323 305.617C457.323 305.416 457.244 305.222 457.103 305.079C456.957 304.943 456.764 304.867 456.565 304.867C456.365 304.867 456.172 304.943 456.026 305.079C455.162 305.806 454.464 306.71 453.979 307.73C453.493 308.75 453.232 309.861 453.212 310.991C453.322 312.199 453.652 312.507 454.047 312.507V312.331ZM507.931 309.452C508.788 308.749 508.678 308.265 508.326 308.046C506.395 306.838 504.383 305.765 502.303 304.837C502.212 304.793 502.113 304.768 502.013 304.763C501.912 304.758 501.812 304.773 501.718 304.808C501.623 304.843 501.536 304.897 501.463 304.966C501.39 305.035 501.332 305.118 501.291 305.21C501.251 305.3 501.229 305.397 501.225 305.495C501.222 305.593 501.238 305.691 501.273 305.782C501.308 305.874 501.361 305.958 501.428 306.03C501.495 306.101 501.575 306.159 501.665 306.199C503.683 307.128 505.644 308.178 507.535 309.342C507.655 309.412 507.792 309.45 507.931 309.452ZM495.685 303.87C495.864 303.862 496.034 303.792 496.167 303.672C496.299 303.552 496.387 303.39 496.413 303.213C496.439 303.037 496.402 302.856 496.31 302.703C496.217 302.55 496.074 302.434 495.905 302.375C493.741 301.685 491.539 301.12 489.31 300.683C489.213 300.66 489.113 300.657 489.015 300.674C488.917 300.691 488.824 300.726 488.74 300.78C488.656 300.833 488.583 300.902 488.526 300.984C488.469 301.065 488.43 301.157 488.409 301.255C488.387 301.353 488.384 301.455 488.402 301.554C488.42 301.653 488.458 301.748 488.513 301.832C488.569 301.916 488.641 301.988 488.725 302.044C488.809 302.099 488.903 302.137 489.002 302.156C491.178 302.596 493.328 303.153 495.444 303.826L495.685 303.87ZM462.49 303.189C464.638 302.449 466.844 301.89 469.085 301.518C469.183 301.505 469.278 301.472 469.364 301.421C469.45 301.371 469.525 301.304 469.584 301.224C469.643 301.144 469.686 301.053 469.71 300.956C469.733 300.86 469.738 300.759 469.722 300.661C469.685 300.467 469.576 300.294 469.417 300.176C469.258 300.058 469.061 300.004 468.865 300.024C466.618 300.379 464.41 300.946 462.269 301.716C462.111 301.785 461.981 301.906 461.9 302.058C461.818 302.211 461.79 302.386 461.821 302.556C461.851 302.726 461.938 302.881 462.068 302.996C462.197 303.111 462.361 303.178 462.534 303.189H462.49ZM484.715 301.716C484.871 301.719 485.024 301.671 485.151 301.58C485.278 301.489 485.372 301.359 485.419 301.211C486.14 299.049 486.735 296.848 487.2 294.617C487.219 294.521 487.219 294.421 487.199 294.325C487.18 294.228 487.141 294.136 487.086 294.054C487.031 293.973 486.96 293.903 486.878 293.848C486.795 293.794 486.703 293.757 486.606 293.738C486.411 293.699 486.208 293.736 486.04 293.842C485.872 293.949 485.752 294.116 485.704 294.31C485.26 296.488 484.688 298.638 483.99 300.749C483.959 300.843 483.947 300.942 483.955 301.04C483.962 301.139 483.99 301.235 484.035 301.322C484.08 301.41 484.142 301.488 484.217 301.552C484.292 301.616 484.38 301.664 484.474 301.694C484.523 301.711 484.575 301.718 484.627 301.716H484.715ZM482.517 301.189C482.715 301.189 482.905 301.11 483.045 300.97C483.186 300.83 483.264 300.64 483.264 300.441C483.264 300.243 483.186 300.053 483.045 299.913C482.905 299.773 482.715 299.694 482.517 299.694C480.245 299.476 477.962 299.388 475.68 299.43C475.478 299.442 475.288 299.53 475.149 299.677C475.01 299.824 474.932 300.019 474.932 300.222C474.958 300.416 475.051 300.596 475.196 300.728C475.341 300.861 475.528 300.938 475.724 300.947C477.925 300.909 480.127 300.99 482.319 301.189H482.517ZM487.507 288.552C487.699 288.548 487.883 288.474 488.024 288.345C488.166 288.215 488.256 288.039 488.277 287.848C488.453 285.958 488.54 284.024 488.54 282.134V281.035C488.535 280.835 488.451 280.645 488.308 280.506C488.164 280.366 487.972 280.288 487.771 280.288C487.67 280.285 487.57 280.303 487.476 280.341C487.383 280.378 487.298 280.435 487.228 280.508C487.157 280.58 487.103 280.666 487.068 280.761C487.033 280.856 487.018 280.957 487.024 281.057V282.112C487.024 283.973 486.936 285.841 486.76 287.717C486.748 287.815 486.756 287.915 486.784 288.011C486.813 288.106 486.86 288.195 486.924 288.271C486.988 288.348 487.067 288.41 487.156 288.454C487.245 288.499 487.342 288.524 487.441 288.53L487.507 288.552ZM487.244 275.08C487.351 275.077 487.456 275.053 487.553 275.007C487.65 274.962 487.736 274.897 487.807 274.816C487.877 274.735 487.93 274.641 487.961 274.539C487.993 274.436 488.003 274.329 487.991 274.222C487.685 271.96 487.23 269.721 486.628 267.519C486.603 267.424 486.559 267.334 486.498 267.256C486.438 267.177 486.362 267.112 486.277 267.063C486.191 267.014 486.096 266.982 485.997 266.97C485.899 266.958 485.8 266.965 485.704 266.992C485.609 267.017 485.519 267.061 485.441 267.122C485.362 267.182 485.297 267.257 485.248 267.343C485.199 267.429 485.168 267.524 485.155 267.622C485.143 267.72 485.15 267.82 485.177 267.915C485.755 270.083 486.196 272.285 486.496 274.508C486.53 274.654 486.606 274.787 486.716 274.888C486.826 274.99 486.964 275.057 487.112 275.08H487.244ZM483.704 262.091C484.386 261.871 484.562 261.432 484.408 261.036C483.511 258.94 482.476 256.906 481.308 254.948C481.257 254.863 481.19 254.789 481.111 254.73C481.032 254.67 480.942 254.627 480.846 254.602C480.75 254.578 480.65 254.573 480.552 254.587C480.454 254.601 480.36 254.634 480.274 254.685C480.189 254.735 480.115 254.802 480.055 254.881C479.996 254.96 479.953 255.05 479.929 255.146C479.904 255.242 479.899 255.342 479.913 255.44C479.927 255.538 479.96 255.632 480.011 255.718C481.138 257.619 482.137 259.595 483 261.629C483.048 261.749 483.126 261.854 483.226 261.935C483.326 262.016 483.445 262.07 483.572 262.091H483.704ZM476.823 250.553C477.615 250.135 477.681 249.652 477.417 249.322C476.032 247.52 474.559 245.784 473.02 244.135C472.876 243.995 472.683 243.916 472.481 243.916C472.28 243.916 472.086 243.995 471.942 244.135C471.806 244.282 471.731 244.474 471.731 244.674C471.731 244.874 471.806 245.066 471.942 245.212C473.459 246.817 474.91 248.531 476.339 250.289C476.428 250.409 476.551 250.501 476.691 250.553H476.823ZM467.633 240.707C468.469 240.136 468.447 239.674 468.117 239.388C466.418 237.884 464.642 236.468 462.797 235.147C462.716 235.089 462.625 235.048 462.528 235.025C462.431 235.003 462.331 235 462.233 235.016C462.135 235.032 462.041 235.068 461.957 235.121C461.873 235.173 461.8 235.242 461.742 235.323C461.684 235.403 461.643 235.495 461.621 235.591C461.598 235.688 461.595 235.789 461.611 235.886C461.628 235.984 461.663 236.078 461.716 236.162C461.768 236.247 461.837 236.32 461.918 236.377C463.721 237.681 465.457 239.066 467.128 240.531C467.232 240.626 467.363 240.687 467.502 240.707H467.633ZM456.641 232.861C457.521 232.114 457.389 231.652 457.015 231.433C455.081 230.312 453.036 229.235 450.97 228.312C450.881 228.268 450.784 228.243 450.685 228.239C450.586 228.234 450.487 228.25 450.394 228.285C450.301 228.32 450.217 228.373 450.146 228.442C450.075 228.511 450.018 228.594 449.98 228.685C449.897 228.863 449.887 229.067 449.953 229.252C450.019 229.437 450.155 229.589 450.332 229.674C452.377 230.619 454.355 231.652 456.268 232.751C456.354 232.807 456.451 232.845 456.553 232.861H456.641ZM444.419 227.213C445.254 226.312 445.056 225.894 444.66 225.74C442.462 224.993 440.263 224.334 438.065 223.762C437.97 223.736 437.87 223.728 437.772 223.741C437.674 223.753 437.579 223.784 437.493 223.833C437.407 223.882 437.332 223.948 437.272 224.026C437.211 224.105 437.167 224.194 437.142 224.29C437.115 224.385 437.107 224.485 437.12 224.583C437.132 224.681 437.163 224.776 437.212 224.862C437.262 224.948 437.327 225.023 437.406 225.083C437.484 225.143 437.574 225.188 437.669 225.213C439.868 225.784 442.066 226.444 444.066 227.169L444.419 227.213ZM431.36 223.828C431.544 223.818 431.719 223.741 431.851 223.612C431.984 223.483 432.065 223.311 432.081 223.127C432.097 222.943 432.046 222.76 431.938 222.61C431.83 222.46 431.671 222.354 431.492 222.312C429.293 221.938 426.985 221.631 424.742 221.433C424.642 221.417 424.539 221.423 424.441 221.45C424.343 221.476 424.252 221.523 424.173 221.588C424.095 221.652 424.03 221.732 423.984 221.823C423.938 221.913 423.912 222.013 423.907 222.114C423.898 222.212 423.908 222.311 423.938 222.406C423.967 222.5 424.015 222.587 424.078 222.663C424.142 222.738 424.219 222.801 424.307 222.846C424.395 222.891 424.49 222.919 424.589 222.927C426.787 223.147 428.986 223.433 431.184 223.806L431.36 223.828ZM411.178 222.883C413.209 222.685 415.249 222.589 417.29 222.598C418.345 222.598 418.675 222.268 418.675 221.872C418.681 221.774 418.666 221.674 418.633 221.581C418.599 221.488 418.547 221.403 418.479 221.331C418.411 221.259 418.329 221.201 418.238 221.162C418.147 221.123 418.049 221.103 417.949 221.103C415.659 221.051 413.368 221.147 411.09 221.389C410.892 221.389 410.702 221.468 410.561 221.608C410.421 221.748 410.343 221.938 410.343 222.136C410.343 222.334 410.421 222.524 410.561 222.665C410.702 222.805 410.892 222.883 411.09 222.883H411.178Z" fill="black"/>
<path d="M210.242 525.292C210.506 525.292 222.18 522.523 222.861 511.204C223.03 509.842 222.89 508.46 222.452 507.159C222.015 505.858 221.29 504.672 220.333 503.688C216.662 500.193 210.484 500.831 210.22 500.853C210.04 500.897 209.881 501.004 209.773 501.156C209.666 501.308 209.617 501.493 209.635 501.678C209.654 501.863 209.74 502.035 209.875 502.162C210.011 502.289 210.188 502.363 210.374 502.369C210.374 502.369 216.134 501.798 219.168 504.787C219.966 505.619 220.566 506.62 220.924 507.716C221.282 508.811 221.388 509.974 221.235 511.116C220.619 521.292 210.396 523.709 209.956 523.797C209.859 523.818 209.767 523.858 209.686 523.915C209.604 523.971 209.535 524.044 209.481 524.128C209.428 524.212 209.392 524.305 209.376 524.403C209.359 524.501 209.362 524.601 209.385 524.698C209.427 524.887 209.539 525.052 209.698 525.162C209.857 525.272 210.051 525.318 210.242 525.292Z" fill="black"/>
<path d="M210.66 531.423C210.924 531.423 230.116 529.225 228.841 511.226C228.82 508.824 228.296 506.453 227.304 504.266C226.312 502.078 224.874 500.122 223.081 498.523C219.456 495.769 214.929 494.475 210.396 494.897C210.296 494.905 210.2 494.933 210.112 494.98C210.023 495.027 209.946 495.092 209.884 495.17C209.822 495.249 209.777 495.339 209.752 495.436C209.727 495.532 209.721 495.633 209.737 495.732C209.764 495.928 209.866 496.107 210.022 496.229C210.178 496.352 210.375 496.41 210.572 496.391C214.7 496.042 218.813 497.215 222.136 499.688C223.754 501.164 225.051 502.959 225.944 504.96C226.837 506.96 227.307 509.123 227.324 511.314C228.511 527.951 211.32 529.841 210.594 529.929C210.495 529.934 210.398 529.96 210.308 530.004C210.219 530.049 210.141 530.111 210.077 530.187C210.013 530.263 209.965 530.352 209.937 530.448C209.908 530.543 209.9 530.643 209.912 530.742C209.934 530.927 210.021 531.097 210.159 531.223C210.296 531.348 210.474 531.419 210.66 531.423Z" fill="black"/>
<path d="M190.698 536.522C192.897 536.522 210.968 536.522 210.968 532.698C210.968 532.498 210.89 532.305 210.75 532.162C210.611 532.018 210.421 531.935 210.221 531.929C210.017 531.929 209.821 532.01 209.676 532.154C209.532 532.298 209.451 532.494 209.451 532.698C208.901 533.577 201.866 535.006 190.698 535.006C178.717 535.006 172.606 533.401 172.144 532.61C172.147 532.512 172.13 532.415 172.093 532.324C172.056 532.233 172.001 532.15 171.931 532.082C171.86 532.014 171.776 531.961 171.684 531.927C171.592 531.893 171.494 531.879 171.396 531.885C171.19 531.896 170.997 531.988 170.857 532.139C170.718 532.291 170.643 532.492 170.649 532.698C170.649 536.412 188.654 536.522 190.698 536.522Z" fill="black"/>
<path d="M189.159 475.161H190.149C199.36 474.898 203.164 470.414 204.724 466.7C207.736 459.514 204.724 450.063 200.196 445.052C200.196 445.052 196.964 441.25 200.02 432.042C201.011 429.48 201.414 426.729 201.201 423.99C200.988 421.252 200.164 418.596 198.788 416.218C197.415 414.228 195.603 412.58 193.491 411.403C191.379 410.225 189.025 409.549 186.609 409.427C185.928 409.427 185.268 409.317 184.631 409.317C182.282 409.286 179.958 409.793 177.835 410.798C175.713 411.804 173.849 413.282 172.386 415.119C170.841 416.986 169.715 419.163 169.085 421.502C168.456 423.842 168.336 426.29 168.736 428.679L168.934 429.69C170.407 436.635 170.89 438.987 168.758 445.997C167.802 449.65 167.63 453.464 168.256 457.188C168.881 460.912 170.289 464.461 172.386 467.601C176.211 472.612 181.861 475.161 189.159 475.161ZM184.631 410.812C185.231 410.779 185.833 410.779 186.433 410.812C188.612 410.93 190.734 411.544 192.639 412.607C194.544 413.669 196.181 415.153 197.426 416.943C198.678 419.127 199.426 421.563 199.612 424.074C199.799 426.584 199.419 429.104 198.503 431.448C195.117 441.602 198.832 445.8 198.986 445.975C203.185 450.525 205.999 459.47 203.229 465.997C201.251 470.744 196.634 473.337 190.039 473.535C182.652 473.799 177.134 471.337 173.55 466.59C171.605 463.639 170.298 460.314 169.711 456.829C169.124 453.344 169.272 449.774 170.143 446.349C172.342 438.943 171.836 436.305 170.363 429.273L170.143 428.262C169.795 426.091 169.912 423.87 170.488 421.748C171.065 419.626 172.086 417.651 173.485 415.954C174.841 414.286 176.564 412.953 178.52 412.061C180.477 411.169 182.613 410.741 184.763 410.812H184.631Z" fill="black"/>
<path d="M171.858 406.658C175.529 406.658 178.453 402.262 178.453 396.878C178.453 391.493 175.463 387.12 171.858 387.12C168.252 387.12 165.262 391.515 165.262 396.878C165.262 402.24 168.186 406.658 171.858 406.658ZM171.858 388.636C174.694 388.636 177.002 392.329 177.002 396.878C177.002 401.427 174.804 405.141 171.858 405.141C168.912 405.141 166.714 401.427 166.714 396.878C166.714 392.329 169.022 388.636 171.858 388.636Z" fill="black"/>
<path d="M171.396 533.445C171.596 533.445 171.789 533.367 171.933 533.228C172.077 533.088 172.16 532.898 172.166 532.698V493.864C172.166 493.66 172.085 493.464 171.94 493.32C171.796 493.176 171.6 493.095 171.396 493.095C171.196 493.1 171.006 493.184 170.866 493.328C170.727 493.471 170.649 493.664 170.649 493.864V532.698C170.649 532.896 170.728 533.086 170.868 533.226C171.008 533.366 171.198 533.445 171.396 533.445Z" fill="black"/>
<path d="M210.243 533.753C210.441 533.753 210.631 533.674 210.771 533.534C210.911 533.394 210.99 533.204 210.99 533.006V493.447C210.99 493.248 210.911 493.058 210.771 492.918C210.631 492.778 210.441 492.699 210.243 492.699C210.042 492.699 209.85 492.777 209.706 492.917C209.562 493.056 209.479 493.246 209.473 493.447V533.006C209.479 533.206 209.562 533.396 209.706 533.535C209.85 533.675 210.042 533.753 210.243 533.753Z" fill="black"/>
<path d="M190.808 498.282C198.305 498.282 210.99 497.337 210.99 493.886C210.99 490.436 198.305 489.491 190.808 489.491C183.312 489.491 170.649 490.414 170.649 493.886C170.649 497.358 183.334 498.282 190.808 498.282ZM190.808 490.963C202.614 490.963 209.231 492.853 209.473 493.864C209.231 494.875 202.614 496.765 190.808 496.765C179.003 496.765 172.408 494.875 172.166 493.842C172.408 492.853 179.025 490.963 190.808 490.963Z" fill="black"/>
<path d="M200.416 412.438H277.624C277.828 412.438 278.024 412.357 278.168 412.213C278.312 412.068 278.394 411.873 278.394 411.669C278.388 411.468 278.304 411.278 278.161 411.139C278.017 410.999 277.824 410.921 277.624 410.922H200.416C200.215 410.921 200.023 410.999 199.879 411.139C199.735 411.278 199.652 411.468 199.646 411.669C199.646 411.873 199.727 412.068 199.871 412.213C200.016 412.357 200.212 412.438 200.416 412.438Z" fill="black"/>
<path d="M118.062 412.438H164.229C164.433 412.438 164.629 412.357 164.773 412.213C164.918 412.068 164.999 411.873 164.999 411.669C164.993 411.469 164.91 411.279 164.766 411.139C164.622 410.999 164.429 410.921 164.229 410.922H118.81V227.367H334.915V363.626C334.915 363.83 334.996 364.026 335.14 364.17C335.285 364.314 335.48 364.395 335.684 364.395C335.884 364.39 336.075 364.306 336.214 364.163C336.354 364.019 336.432 363.827 336.432 363.626V226.663C336.432 226.465 336.353 226.275 336.213 226.135C336.072 225.995 335.882 225.916 335.684 225.916H118.04C117.842 225.916 117.652 225.995 117.512 226.135C117.372 226.275 117.293 226.465 117.293 226.663V411.669C117.293 411.77 117.313 411.87 117.352 411.963C117.39 412.056 117.447 412.141 117.519 412.213C117.59 412.284 117.675 412.341 117.768 412.379C117.861 412.418 117.961 412.438 118.062 412.438Z" fill="black"/>
<path d="M118.062 247.278H335.706C335.804 247.278 335.902 247.259 335.992 247.221C336.083 247.184 336.165 247.129 336.235 247.059C336.304 246.99 336.359 246.908 336.397 246.817C336.435 246.726 336.454 246.629 336.454 246.531V226.751C336.454 226.653 336.435 226.556 336.397 226.465C336.359 226.375 336.304 226.292 336.235 226.223C336.165 226.154 336.083 226.099 335.992 226.061C335.902 226.023 335.804 226.004 335.706 226.004H118.062C117.864 226.004 117.674 226.083 117.534 226.223C117.394 226.363 117.315 226.553 117.315 226.751V246.531C117.315 246.729 117.394 246.919 117.534 247.059C117.674 247.199 117.864 247.278 118.062 247.278ZM334.937 245.762H118.81V227.367H334.915L334.937 245.762Z" fill="black"/>
<path d="M131.759 378.483H221.894C222.098 378.483 222.294 378.402 222.438 378.258C222.582 378.113 222.664 377.918 222.664 377.714V265.629C222.658 265.429 222.574 265.239 222.431 265.1C222.287 264.96 222.094 264.882 221.894 264.882H131.759C131.558 264.882 131.366 264.96 131.222 265.1C131.079 265.239 130.995 265.429 130.99 265.629V377.714C130.99 377.918 131.071 378.113 131.215 378.258C131.359 378.402 131.555 378.483 131.759 378.483ZM221.213 376.967H132.506V266.464H221.213V376.967Z" fill="black"/>
<path d="M186.346 343.979C186.544 343.979 186.734 343.9 186.874 343.76C187.014 343.619 187.093 343.429 187.093 343.231V336.638C187.088 336.438 187.004 336.248 186.86 336.108C186.717 335.969 186.524 335.891 186.324 335.891C186.225 335.891 186.128 335.91 186.038 335.948C185.947 335.985 185.864 336.04 185.795 336.11C185.726 336.179 185.671 336.262 185.633 336.352C185.596 336.443 185.576 336.54 185.576 336.638V343.231C185.582 343.431 185.666 343.622 185.809 343.761C185.953 343.901 186.145 343.979 186.346 343.979Z" fill="black"/>
<path d="M186.961 337.517C190.367 337.649 193.739 336.803 196.678 335.078C202.943 331.078 201.317 323.935 200.152 318.726C199.866 317.496 199.602 316.309 199.492 315.386C198.942 310.661 197.997 291.562 197.975 291.365C197.964 291.165 197.875 290.977 197.727 290.841C197.579 290.706 197.384 290.633 197.184 290.639C197.083 290.645 196.985 290.671 196.895 290.715C196.805 290.759 196.725 290.821 196.659 290.897C196.594 290.973 196.544 291.061 196.513 291.156C196.482 291.252 196.471 291.353 196.48 291.453C196.48 292.222 197.448 310.793 197.975 315.628C198.107 316.639 198.371 317.825 198.657 319.122C199.8 324.155 201.229 330.44 195.865 333.869C188.984 338.264 177.42 334.616 177.31 334.572C177.125 334.533 176.931 334.563 176.767 334.656C176.603 334.75 176.479 334.902 176.419 335.081C176.359 335.261 176.368 335.456 176.443 335.63C176.518 335.803 176.654 335.943 176.826 336.023C180.118 336.99 183.53 337.493 186.961 337.517Z" fill="black"/>
<path d="M166.427 308.903C166.534 308.9 166.64 308.876 166.737 308.83C166.834 308.785 166.92 308.72 166.99 308.639C167.061 308.559 167.114 308.464 167.145 308.362C167.177 308.26 167.187 308.152 167.175 308.046C166.34 302.375 169.373 295.892 170.231 294.112C179.281 295.627 188.564 294.941 197.293 292.112C197.388 292.08 197.475 292.029 197.55 291.963C197.625 291.897 197.686 291.816 197.729 291.726C197.772 291.636 197.796 291.538 197.8 291.438C197.805 291.338 197.79 291.239 197.755 291.145C197.685 290.957 197.546 290.804 197.365 290.718C197.185 290.632 196.977 290.62 196.788 290.683C188.122 293.429 178.924 294.054 169.967 292.508C169.809 292.474 169.645 292.492 169.498 292.559C169.351 292.627 169.23 292.74 169.153 292.881C168.978 293.233 164.625 301.123 165.68 308.265C165.707 308.444 165.797 308.607 165.934 308.724C166.072 308.841 166.247 308.905 166.427 308.903Z" fill="black"/>
<path d="M157.018 305.936C157.634 305.782 157.854 305.342 157.744 304.947C157.634 304.551 152.622 288.332 157.348 282.969C160.778 279.123 162.602 279.541 165.9 280.288C167.344 280.649 168.814 280.899 170.297 281.035C173.902 281.387 177.156 279.541 180.586 277.607C185.202 275.014 189.951 272.332 195.975 274.816C198.318 275.677 200.323 277.267 201.696 279.351C203.069 281.436 203.738 283.906 203.603 286.398C203.569 288.285 202.919 290.109 201.753 291.593C200.586 293.077 198.966 294.139 197.139 294.617C197.043 294.638 196.951 294.678 196.87 294.735C196.79 294.792 196.722 294.865 196.67 294.949C196.619 295.034 196.585 295.128 196.572 295.226C196.558 295.324 196.564 295.423 196.59 295.518C196.613 295.616 196.656 295.708 196.715 295.789C196.774 295.87 196.849 295.938 196.935 295.989C197.022 296.04 197.117 296.074 197.216 296.087C197.315 296.101 197.417 296.094 197.513 296.068C199.649 295.519 201.547 294.288 202.92 292.563C204.293 290.837 205.065 288.712 205.12 286.508C205.297 283.681 204.559 280.872 203.015 278.497C201.471 276.122 199.203 274.307 196.546 273.321C189.775 270.574 184.477 273.563 179.794 276.2C176.562 278.002 173.528 279.717 170.341 279.453C168.905 279.3 167.481 279.058 166.076 278.728C162.602 277.937 160.096 277.387 156.073 281.893C150.775 287.826 155.919 304.551 156.073 305.254C156.083 305.365 156.116 305.471 156.171 305.568C156.225 305.664 156.3 305.747 156.39 305.812C156.479 305.876 156.582 305.921 156.69 305.942C156.799 305.964 156.911 305.961 157.018 305.936Z" fill="black"/>
<path d="M171.88 302.222C173.036 301.364 174.3 300.662 175.64 300.134C175.739 300.114 175.832 300.073 175.915 300.014C175.997 299.956 176.067 299.881 176.119 299.794C176.171 299.707 176.203 299.61 176.215 299.51C176.228 299.409 176.219 299.307 176.189 299.211C176.128 299.023 176.001 298.863 175.831 298.762C175.661 298.661 175.46 298.625 175.265 298.661C173.811 299.087 172.472 299.838 171.352 300.859C171.213 300.999 171.134 301.189 171.134 301.386C171.134 301.584 171.213 301.774 171.352 301.914C171.415 301.998 171.495 302.068 171.585 302.121C171.676 302.174 171.776 302.208 171.88 302.222Z" fill="black"/>
<path d="M194.238 301.738C195.073 301.277 195.095 300.793 194.809 300.485C193.745 299.509 192.413 298.874 190.984 298.661C190.787 298.636 190.586 298.688 190.427 298.807C190.267 298.926 190.159 299.102 190.127 299.299C190.111 299.397 190.115 299.497 190.139 299.594C190.163 299.69 190.206 299.781 190.265 299.861C190.324 299.941 190.399 300.008 190.485 300.059C190.571 300.109 190.666 300.142 190.764 300.156C191.85 300.305 192.867 300.771 193.688 301.496C193.833 301.646 194.03 301.733 194.238 301.738Z" fill="black"/>
<path d="M190.435 319.54C191.204 318.639 191.622 313.628 188.5 304.925C188.43 304.737 188.29 304.584 188.11 304.498C187.929 304.412 187.722 304.399 187.533 304.463C187.438 304.495 187.351 304.546 187.276 304.612C187.201 304.679 187.14 304.759 187.097 304.849C187.054 304.939 187.03 305.037 187.025 305.137C187.021 305.237 187.036 305.337 187.071 305.43C188.589 309.377 189.479 313.537 189.709 317.76L187.005 316.858C186.813 316.801 186.606 316.82 186.426 316.909C186.246 316.999 186.108 317.154 186.038 317.342C185.975 317.534 185.99 317.744 186.081 317.925C186.171 318.106 186.33 318.244 186.521 318.309L190.215 319.518L190.435 319.54Z" fill="black"/>
<path d="M160.053 320.177C161.616 320.179 163.145 319.72 164.449 318.858C164.608 318.747 164.717 318.579 164.754 318.389C164.791 318.199 164.752 318.002 164.647 317.84C164.542 317.678 164.377 317.562 164.189 317.519C164 317.475 163.802 317.506 163.636 317.606C162.551 318.294 161.293 318.66 160.009 318.661C158.838 318.635 157.696 318.298 156.699 317.685C155.702 317.072 154.886 316.205 154.335 315.172C153.784 314.14 153.518 312.98 153.564 311.81C153.61 310.641 153.967 309.505 154.597 308.519C155.227 307.533 156.108 306.733 157.15 306.2C158.192 305.667 159.357 305.42 160.526 305.486C161.695 305.552 162.825 305.928 163.8 306.574C164.775 307.221 165.561 308.116 166.076 309.166C166.116 309.259 166.175 309.342 166.248 309.411C166.321 309.48 166.408 309.534 166.502 309.569C166.597 309.603 166.697 309.619 166.798 309.614C166.898 309.609 166.997 309.584 167.087 309.54C167.178 309.498 167.259 309.438 167.326 309.364C167.393 309.29 167.444 309.203 167.477 309.109C167.509 309.014 167.523 308.915 167.517 308.815C167.51 308.716 167.484 308.618 167.439 308.529C166.82 307.195 165.854 306.053 164.641 305.221C163.428 304.389 162.014 303.898 160.547 303.8C159.079 303.702 157.613 304.001 156.3 304.664C154.988 305.328 153.878 306.332 153.087 307.572C152.296 308.811 151.854 310.241 151.805 311.71C151.757 313.18 152.105 314.635 152.813 315.924C153.52 317.213 154.562 318.288 155.828 319.036C157.094 319.784 158.538 320.178 160.009 320.177H160.053Z" fill="black"/>
<path d="M175.749 351.802C186.741 351.802 187.093 343.319 187.093 343.231C187.093 343.031 187.015 342.839 186.875 342.695C186.736 342.551 186.546 342.468 186.346 342.462C186.147 342.467 185.957 342.547 185.815 342.686C185.672 342.824 185.587 343.011 185.576 343.209C185.576 343.495 185.312 350.264 175.793 350.286C165.131 350.286 161.679 344.638 161.152 343.693V319.518C161.152 319.314 161.071 319.118 160.926 318.974C160.782 318.83 160.586 318.749 160.382 318.749C160.182 318.754 159.992 318.838 159.852 318.981C159.713 319.125 159.635 319.317 159.635 319.518V343.847C159.855 344.462 163.328 351.802 175.749 351.802Z" fill="black"/>
<path d="M193.688 308.683C193.801 308.677 193.911 308.649 194.013 308.601C194.115 308.553 194.206 308.485 194.282 308.401C194.358 308.317 194.416 308.22 194.454 308.113C194.491 308.007 194.507 307.894 194.501 307.782L194.37 305.364C194.353 305.139 194.25 304.929 194.082 304.777C193.914 304.626 193.694 304.545 193.468 304.551C193.356 304.557 193.245 304.585 193.144 304.633C193.042 304.681 192.95 304.749 192.875 304.833C192.799 304.917 192.741 305.014 192.703 305.121C192.665 305.227 192.649 305.34 192.655 305.452V307.87C192.663 307.994 192.696 308.115 192.753 308.225C192.811 308.335 192.891 308.432 192.989 308.508C193.087 308.585 193.199 308.64 193.32 308.671C193.44 308.701 193.566 308.705 193.688 308.683Z" fill="black"/>
<path d="M179.201 309.276C179.315 309.273 179.428 309.248 179.532 309.201C179.637 309.154 179.731 309.086 179.809 309.002C179.887 308.918 179.947 308.819 179.986 308.712C180.025 308.604 180.042 308.489 180.036 308.375L179.904 305.958C179.887 305.732 179.784 305.522 179.617 305.371C179.449 305.219 179.228 305.138 179.002 305.145C178.889 305.147 178.777 305.173 178.674 305.22C178.571 305.268 178.478 305.336 178.402 305.42C178.326 305.504 178.268 305.603 178.231 305.711C178.195 305.818 178.18 305.932 178.189 306.046V308.463C178.194 308.586 178.224 308.707 178.28 308.817C178.335 308.927 178.413 309.024 178.509 309.101C178.605 309.178 178.716 309.234 178.836 309.264C178.955 309.294 179.079 309.298 179.201 309.276Z" fill="black"/>
<path d="M185.818 326.265C186.213 326.133 190.874 323.188 190.874 323.188C190.961 323.136 191.037 323.067 191.096 322.986C191.156 322.904 191.198 322.811 191.221 322.712C191.243 322.614 191.246 322.511 191.228 322.412C191.21 322.312 191.171 322.217 191.116 322.133C191.064 322.048 190.997 321.975 190.916 321.918C190.835 321.861 190.743 321.821 190.646 321.8C190.55 321.779 190.45 321.779 190.353 321.798C190.256 321.818 190.164 321.857 190.082 321.913L185.994 324.485L182.168 319.386C182.109 319.306 182.035 319.24 181.95 319.189C181.865 319.138 181.77 319.105 181.672 319.09C181.574 319.076 181.475 319.081 181.379 319.106C181.283 319.13 181.193 319.173 181.113 319.232C181.034 319.291 180.967 319.365 180.916 319.45C180.866 319.535 180.832 319.63 180.817 319.728C180.803 319.826 180.808 319.925 180.832 320.021C180.857 320.117 180.9 320.208 180.959 320.287L185.202 325.957C185.274 326.053 185.367 326.13 185.474 326.184C185.58 326.237 185.698 326.265 185.818 326.265Z" fill="black"/>
<path d="M221.96 367.56C222.619 367.362 222.817 366.923 222.664 366.527C215.277 346.748 187.621 343.209 186.434 343.078C186.335 343.066 186.236 343.074 186.141 343.101C186.046 343.128 185.957 343.173 185.879 343.234C185.802 343.295 185.737 343.371 185.689 343.458C185.64 343.544 185.609 343.639 185.598 343.737C185.586 343.835 185.595 343.934 185.621 344.029C185.648 344.124 185.694 344.213 185.755 344.291C185.816 344.369 185.892 344.433 185.978 344.481C186.065 344.53 186.159 344.56 186.258 344.572C186.543 344.572 214.178 348.176 221.257 367.055C221.307 367.202 221.402 367.329 221.528 367.42C221.654 367.51 221.805 367.559 221.96 367.56Z" fill="black"/>
<path d="M131.759 357.033C143.103 346.836 160.338 344.682 160.47 344.66C160.668 344.637 160.849 344.535 160.973 344.379C161.097 344.222 161.153 344.023 161.13 343.825C161.107 343.627 161.005 343.446 160.849 343.322C160.692 343.198 160.493 343.142 160.295 343.165C159.569 343.165 142.421 345.363 131.231 355.715C131.09 355.858 131.012 356.052 131.012 356.253C131.012 356.454 131.09 356.648 131.231 356.791C131.298 356.865 131.38 356.924 131.47 356.966C131.561 357.007 131.659 357.03 131.759 357.033Z" fill="black"/>
<path d="M246.098 279.827H292.485C292.74 279.83 292.993 279.782 293.229 279.685C293.465 279.589 293.68 279.447 293.86 279.267C294.04 279.087 294.182 278.872 294.278 278.636C294.375 278.4 294.422 278.147 294.42 277.893V263.344C294.42 262.831 294.216 262.339 293.853 261.976C293.49 261.613 292.998 261.41 292.485 261.41H246.12C245.609 261.415 245.12 261.621 244.759 261.982C244.397 262.344 244.192 262.833 244.186 263.344V277.915C244.192 278.42 244.395 278.903 244.752 279.26C245.11 279.618 245.593 279.821 246.098 279.827ZM292.485 262.926C292.903 263.344 292.903 277.893 292.903 277.893C292.485 278.332 246.12 278.332 246.12 278.332C245.703 277.893 245.703 263.344 245.703 263.344C246.098 262.926 292.485 262.926 292.485 262.926Z" fill="black"/>
<path d="M261.84 271.321H288.221C288.38 271.316 288.531 271.248 288.641 271.134C288.752 271.019 288.814 270.865 288.814 270.706C288.814 270.549 288.752 270.398 288.64 270.286C288.529 270.175 288.378 270.113 288.221 270.113H261.84C261.68 270.113 261.527 270.174 261.412 270.285C261.297 270.396 261.23 270.547 261.224 270.706C261.229 270.867 261.296 271.021 261.41 271.135C261.524 271.249 261.678 271.316 261.84 271.321Z" fill="black"/>
<path d="M257.068 266.926H288.264C288.405 266.899 288.532 266.824 288.623 266.714C288.714 266.603 288.764 266.465 288.764 266.322C288.764 266.178 288.714 266.04 288.623 265.93C288.532 265.819 288.405 265.744 288.264 265.717H257.068C256.928 265.744 256.801 265.819 256.71 265.93C256.619 266.04 256.569 266.178 256.569 266.322C256.569 266.465 256.619 266.603 256.71 266.714C256.801 266.824 256.928 266.899 257.068 266.926Z" fill="black"/>
<path d="M266.983 276.135H288.265C288.424 276.129 288.575 276.062 288.685 275.947C288.796 275.832 288.858 275.679 288.858 275.519C288.858 275.362 288.796 275.211 288.684 275.099C288.573 274.988 288.422 274.926 288.265 274.926H266.983C266.826 274.926 266.675 274.988 266.564 275.099C266.452 275.211 266.39 275.362 266.39 275.519C266.39 275.679 266.452 275.832 266.563 275.947C266.673 276.062 266.824 276.129 266.983 276.135Z" fill="black"/>
<path d="M246.098 337.122H292.485C292.998 337.122 293.49 336.918 293.853 336.555C294.216 336.192 294.42 335.701 294.42 335.188V320.639C294.422 320.383 294.375 320.129 294.279 319.892C294.183 319.655 294.041 319.439 293.861 319.257C293.681 319.075 293.467 318.93 293.231 318.832C292.995 318.733 292.741 318.683 292.485 318.683H246.12C245.605 318.688 245.113 318.897 244.751 319.263C244.389 319.629 244.186 320.124 244.186 320.639V335.188C244.192 335.695 244.394 336.18 244.751 336.541C245.108 336.902 245.591 337.11 246.098 337.122ZM292.463 320.199C292.881 320.639 292.881 335.188 292.881 335.188C292.463 335.605 246.098 335.605 246.098 335.605C245.681 335.188 245.681 320.639 245.681 320.639C246.098 320.199 292.485 320.199 292.485 320.199H292.463Z" fill="black"/>
<path d="M261.839 328.463H288.221C288.361 328.436 288.488 328.361 288.579 328.25C288.67 328.14 288.72 328.001 288.72 327.858C288.72 327.715 288.67 327.576 288.579 327.466C288.488 327.356 288.361 327.281 288.221 327.254H261.839C261.75 327.237 261.658 327.24 261.571 327.262C261.483 327.284 261.401 327.326 261.331 327.384C261.261 327.442 261.205 327.514 261.166 327.596C261.128 327.678 261.108 327.767 261.108 327.858C261.108 327.949 261.128 328.038 261.166 328.12C261.205 328.202 261.261 328.275 261.331 328.332C261.401 328.39 261.483 328.432 261.571 328.454C261.658 328.477 261.75 328.48 261.839 328.463Z" fill="black"/>
<path d="M257.069 323.913H288.265C288.422 323.913 288.573 323.851 288.684 323.739C288.796 323.628 288.858 323.477 288.858 323.32C288.858 323.16 288.796 323.007 288.685 322.892C288.575 322.777 288.424 322.71 288.265 322.704H257.069C256.909 322.71 256.758 322.777 256.648 322.892C256.537 323.007 256.475 323.16 256.475 323.32C256.475 323.477 256.537 323.628 256.649 323.739C256.76 323.851 256.911 323.913 257.069 323.913Z" fill="black"/>
<path d="M266.983 333.1H288.264C288.405 333.073 288.532 332.998 288.623 332.887C288.714 332.777 288.764 332.639 288.764 332.495C288.764 332.352 288.714 332.214 288.623 332.103C288.532 331.993 288.405 331.918 288.264 331.891H266.983C266.843 331.918 266.716 331.993 266.625 332.103C266.534 332.214 266.484 332.352 266.484 332.495C266.484 332.639 266.534 332.777 266.625 332.887C266.716 332.998 266.843 333.073 266.983 333.1Z" fill="black"/>
<path d="M274.898 308.397H321.263C321.517 308.397 321.768 308.347 322.003 308.25C322.238 308.153 322.451 308.01 322.63 307.831C322.81 307.651 322.953 307.438 323.05 307.203C323.147 306.969 323.197 306.717 323.197 306.463V291.914C323.2 291.659 323.152 291.407 323.056 291.171C322.96 290.935 322.818 290.72 322.637 290.54C322.457 290.36 322.242 290.218 322.006 290.121C321.77 290.025 321.518 289.977 321.263 289.98H274.898C274.643 289.977 274.39 290.025 274.154 290.121C273.918 290.218 273.704 290.36 273.523 290.54C273.343 290.72 273.201 290.935 273.105 291.171C273.008 291.407 272.961 291.659 272.964 291.914V306.485C272.969 306.994 273.176 307.48 273.538 307.838C273.9 308.196 274.389 308.397 274.898 308.397ZM321.263 291.497C321.68 291.914 321.68 306.463 321.68 306.463C321.263 306.881 274.898 306.881 274.898 306.881C274.48 306.463 274.48 291.914 274.48 291.914C274.898 291.497 321.219 291.497 321.219 291.497H321.263Z" fill="black"/>
<path d="M290.661 299.65H317.042C317.121 299.653 317.201 299.64 317.276 299.611C317.35 299.583 317.418 299.54 317.476 299.484C317.533 299.429 317.579 299.363 317.61 299.289C317.641 299.216 317.657 299.137 317.657 299.057C317.657 298.894 317.592 298.737 317.477 298.622C317.361 298.506 317.205 298.442 317.042 298.442H290.661C290.58 298.442 290.5 298.457 290.425 298.488C290.35 298.519 290.282 298.565 290.225 298.622C290.168 298.679 290.123 298.747 290.092 298.821C290.061 298.896 290.045 298.976 290.045 299.057C290.045 299.137 290.061 299.216 290.092 299.289C290.123 299.363 290.169 299.429 290.227 299.484C290.284 299.54 290.352 299.583 290.427 299.611C290.502 299.64 290.581 299.653 290.661 299.65Z" fill="black"/>
<path d="M285.89 295.211H317.064C317.227 295.211 317.383 295.146 317.499 295.031C317.614 294.915 317.679 294.759 317.679 294.596C317.679 294.432 317.614 294.276 317.499 294.16C317.383 294.045 317.227 293.98 317.064 293.98H285.89C285.727 293.98 285.57 294.045 285.455 294.16C285.339 294.276 285.274 294.432 285.274 294.596C285.274 294.759 285.339 294.915 285.455 295.031C285.57 295.146 285.727 295.211 285.89 295.211Z" fill="black"/>
<path d="M295.805 304.287H317.064C317.153 304.305 317.245 304.302 317.333 304.279C317.42 304.257 317.502 304.215 317.572 304.157C317.642 304.1 317.698 304.027 317.737 303.945C317.775 303.863 317.795 303.774 317.795 303.683C317.795 303.592 317.775 303.503 317.737 303.421C317.698 303.339 317.642 303.267 317.572 303.209C317.502 303.151 317.42 303.109 317.333 303.087C317.245 303.064 317.153 303.062 317.064 303.079H295.805C295.664 303.106 295.538 303.181 295.447 303.291C295.355 303.401 295.305 303.54 295.305 303.683C295.305 303.826 295.355 303.965 295.447 304.075C295.538 304.185 295.664 304.261 295.805 304.287Z" fill="black"/>
<path d="M246.098 394.241H292.485C292.998 394.241 293.49 394.037 293.853 393.674C294.216 393.311 294.42 392.82 294.42 392.307V377.758C294.422 377.503 294.375 377.25 294.278 377.014C294.182 376.778 294.04 376.564 293.86 376.384C293.68 376.203 293.465 376.061 293.229 375.965C292.993 375.869 292.74 375.821 292.485 375.824H246.12C245.607 375.824 245.116 376.027 244.753 376.39C244.39 376.753 244.186 377.245 244.186 377.758V392.307C244.192 392.814 244.394 393.299 244.751 393.66C245.108 394.021 245.591 394.229 246.098 394.241ZM292.485 377.34C292.903 377.758 292.903 392.307 292.903 392.307C292.485 392.724 246.12 392.724 246.12 392.724C245.703 392.307 245.703 377.758 245.703 377.758C246.098 377.34 292.485 377.34 292.485 377.34Z" fill="black"/>
<path d="M261.84 385.604H288.221C288.378 385.604 288.529 385.541 288.64 385.43C288.752 385.318 288.814 385.168 288.814 385.01C288.814 384.851 288.752 384.697 288.641 384.583C288.531 384.468 288.38 384.401 288.221 384.395H261.84C261.678 384.4 261.524 384.467 261.41 384.581C261.296 384.695 261.229 384.849 261.224 385.01C261.23 385.17 261.297 385.321 261.412 385.431C261.527 385.542 261.68 385.604 261.84 385.604Z" fill="black"/>
<path d="M257.069 381.054H288.265C288.424 381.049 288.575 380.981 288.685 380.867C288.796 380.752 288.858 380.598 288.858 380.439C288.858 380.282 288.796 380.131 288.684 380.019C288.573 379.908 288.422 379.846 288.265 379.846H257.069C256.911 379.846 256.76 379.908 256.649 380.019C256.537 380.131 256.475 380.282 256.475 380.439C256.475 380.598 256.537 380.752 256.648 380.867C256.758 380.981 256.909 381.049 257.069 381.054Z" fill="black"/>
<path d="M266.983 390.219H288.264C288.405 390.192 288.532 390.117 288.623 390.007C288.714 389.896 288.764 389.758 288.764 389.614C288.764 389.471 288.714 389.333 288.623 389.222C288.532 389.112 288.405 389.037 288.264 389.01H266.983C266.843 389.037 266.716 389.112 266.625 389.222C266.534 389.333 266.484 389.471 266.484 389.614C266.484 389.758 266.534 389.896 266.625 390.007C266.716 390.117 266.843 390.192 266.983 390.219Z" fill="black"/>
<path d="M274.898 365.516H321.263C321.518 365.519 321.77 365.471 322.006 365.375C322.242 365.279 322.457 365.137 322.637 364.956C322.818 364.776 322.96 364.562 323.056 364.326C323.152 364.09 323.2 363.837 323.197 363.582V349.033C323.197 348.779 323.147 348.528 323.05 348.293C322.953 348.059 322.81 347.845 322.63 347.666C322.451 347.486 322.238 347.344 322.003 347.247C321.768 347.149 321.517 347.099 321.263 347.099H274.898C274.385 347.099 273.893 347.303 273.53 347.666C273.167 348.028 272.964 348.52 272.964 349.033V363.626C272.966 363.877 273.018 364.125 273.117 364.356C273.216 364.587 273.359 364.796 273.539 364.972C273.719 365.147 273.931 365.286 274.164 365.379C274.397 365.473 274.647 365.519 274.898 365.516ZM321.263 348.616C321.68 349.033 321.68 363.582 321.68 363.582C321.263 364 274.898 364 274.898 364C274.48 363.582 274.48 349.033 274.48 349.033C274.898 348.616 321.219 348.616 321.219 348.616H321.263Z" fill="black"/>
<path d="M290.661 356.791H317.042C317.205 356.791 317.361 356.727 317.477 356.611C317.592 356.496 317.657 356.339 317.657 356.176C317.657 356.096 317.641 356.017 317.61 355.944C317.579 355.87 317.533 355.804 317.476 355.748C317.418 355.693 317.35 355.65 317.276 355.621C317.201 355.593 317.121 355.58 317.042 355.583H290.661C290.581 355.58 290.502 355.593 290.427 355.621C290.352 355.65 290.284 355.693 290.227 355.748C290.169 355.804 290.123 355.87 290.092 355.944C290.061 356.017 290.045 356.096 290.045 356.176C290.045 356.257 290.061 356.337 290.092 356.412C290.123 356.486 290.168 356.554 290.225 356.611C290.282 356.668 290.35 356.714 290.425 356.745C290.5 356.776 290.58 356.791 290.661 356.791Z" fill="black"/>
<path d="M285.89 352.33H317.064C317.153 352.347 317.245 352.344 317.333 352.322C317.42 352.299 317.502 352.258 317.572 352.2C317.642 352.142 317.698 352.07 317.737 351.988C317.775 351.906 317.795 351.816 317.795 351.726C317.795 351.635 317.775 351.545 317.737 351.463C317.698 351.381 317.642 351.309 317.572 351.251C317.502 351.193 317.42 351.152 317.333 351.129C317.245 351.107 317.153 351.104 317.064 351.121H285.89C285.801 351.104 285.71 351.107 285.622 351.129C285.534 351.152 285.452 351.193 285.382 351.251C285.313 351.309 285.256 351.381 285.218 351.463C285.179 351.545 285.159 351.635 285.159 351.726C285.159 351.816 285.179 351.906 285.218 351.988C285.256 352.07 285.313 352.142 285.382 352.2C285.452 352.258 285.534 352.299 285.622 352.322C285.71 352.344 285.801 352.347 285.89 352.33Z" fill="black"/>
<path d="M295.805 361.428H317.064C317.227 361.428 317.383 361.364 317.499 361.248C317.614 361.133 317.679 360.976 317.679 360.813C317.679 360.65 317.614 360.493 317.499 360.378C317.383 360.263 317.227 360.198 317.064 360.198H295.805C295.642 360.198 295.485 360.263 295.37 360.378C295.254 360.493 295.189 360.65 295.189 360.813C295.189 360.976 295.254 361.133 295.37 361.248C295.485 361.364 295.642 361.428 295.805 361.428Z" fill="black"/>
<path d="M158.381 316.265C158.733 316.265 164.691 313.166 164.691 313.166C164.845 311.936 158.887 306.573 158.887 306.573C158.732 306.468 158.544 306.423 158.359 306.446C158.173 306.47 158.002 306.56 157.879 306.7C157.755 306.84 157.686 307.02 157.686 307.207C157.685 307.394 157.753 307.575 157.876 307.716L162.998 312.265L158.052 314.771C157.873 314.861 157.736 315.016 157.671 315.205C157.605 315.394 157.616 315.6 157.7 315.782C157.755 315.919 157.848 316.038 157.969 316.124C158.09 316.21 158.233 316.259 158.381 316.265Z" fill="black"/>
<g opacity="0.2">
<path d="M392.931 525.072C393.131 525.072 393.324 524.994 393.468 524.854C393.611 524.715 393.695 524.525 393.701 524.325C393.701 523.951 393.7 523.753 392.953 523.621C392.567 523.556 392.173 523.556 391.788 523.621L388.337 523.402C387.128 523.402 386.775 523.731 386.775 524.149C386.775 524.347 386.854 524.537 386.994 524.677C387.134 524.817 387.325 524.896 387.523 524.896L392.931 525.072Z" fill="black"/>
</g>
<path d="M401.703 346.704C403.575 345.716 405.312 344.49 406.869 343.056C406.715 341.825 402.78 339.869 402.78 339.869C402.752 334.661 403.492 329.477 404.979 324.485C405.033 324.289 405.008 324.081 404.909 323.904C404.81 323.727 404.646 323.596 404.451 323.54C404.356 323.513 404.256 323.506 404.158 323.518C404.06 323.53 403.965 323.562 403.879 323.611C403.793 323.66 403.718 323.725 403.658 323.804C403.597 323.882 403.553 323.972 403.528 324.067C401.876 329.304 401.081 334.774 401.175 340.264C402.335 341.134 403.589 341.871 404.912 342.462C403.782 343.448 402.56 344.324 401.263 345.077C401.085 345.167 400.948 345.323 400.883 345.512C400.817 345.7 400.828 345.907 400.912 346.088C400.944 346.271 401.042 346.435 401.189 346.548C401.335 346.662 401.518 346.717 401.703 346.704Z" fill="black"/>
<path d="M410.079 335.188C410.379 335.277 410.702 335.243 410.978 335.095C411.254 334.947 411.46 334.696 411.551 334.396L412.497 331.188C412.544 331.039 412.561 330.883 412.546 330.727C412.532 330.572 412.487 330.421 412.413 330.284C412.339 330.147 412.238 330.026 412.117 329.928C411.995 329.83 411.855 329.758 411.705 329.715C411.405 329.626 411.082 329.659 410.806 329.808C410.53 329.956 410.324 330.207 410.233 330.506L409.287 333.715C409.198 334.015 409.232 334.338 409.38 334.614C409.528 334.89 409.779 335.096 410.079 335.188Z" fill="black"/>
<path d="M391.085 330.177C391.388 330.259 391.711 330.22 391.986 330.068C392.261 329.917 392.466 329.664 392.557 329.364L393.503 326.155C393.511 325.893 393.433 325.636 393.28 325.423C393.127 325.211 392.908 325.055 392.657 324.98C392.406 324.904 392.138 324.914 391.893 325.007C391.648 325.101 391.441 325.272 391.304 325.496L390.381 328.704C390.288 328.993 390.309 329.307 390.439 329.581C390.57 329.854 390.801 330.068 391.085 330.177Z" fill="black"/>
<path d="M421.709 324.067C421.879 324.068 422.045 324.012 422.18 323.909C422.315 323.805 422.412 323.66 422.456 323.496C422.498 323.301 422.464 323.098 422.362 322.927C422.26 322.755 422.098 322.629 421.907 322.573L384.115 312.639C384.555 310.639 385.61 305.452 384.907 303.342C383.5 303.342 379.125 310.331 374.838 318.924C374.745 319.105 374.728 319.315 374.79 319.509C374.852 319.702 374.988 319.864 375.168 319.957C375.353 320.042 375.562 320.053 375.755 319.988C375.947 319.923 376.107 319.786 376.201 319.606C379.081 313.804 382.027 308.617 383.61 306.002C383.408 308.356 383.034 310.692 382.488 312.99C382.462 313.086 382.455 313.185 382.467 313.283C382.479 313.382 382.51 313.476 382.559 313.562C382.608 313.648 382.674 313.723 382.753 313.784C382.831 313.844 382.921 313.888 383.016 313.914L421.532 324.067H421.709Z" fill="black"/>
<path d="M372.068 359.231C372.816 358.923 372.948 358.484 372.75 358.11C363.956 341.825 369.035 335.539 369.079 335.473C369.184 335.319 369.229 335.131 369.205 334.945C369.182 334.76 369.092 334.589 368.952 334.465C368.812 334.341 368.631 334.273 368.444 334.272C368.257 334.272 368.076 334.339 367.936 334.462C367.694 334.748 361.978 341.495 371.409 358.835C371.474 358.953 371.57 359.052 371.686 359.121C371.801 359.191 371.933 359.228 372.068 359.231Z" fill="black"/>
<path d="M372.068 359.231C372.947 358.396 372.75 357.934 372.376 357.78C362.461 353.517 348.875 346.11 349.71 342.946C357.031 315.276 355.822 303.87 355.58 302.288C356.445 299.144 358.074 296.264 360.321 293.902C362.569 291.54 365.366 289.77 368.463 288.749C384.16 282.947 409.133 290.64 415.882 295.079C416.41 295.387 427.732 302.134 420.983 323.188C420.928 323.38 420.95 323.587 421.044 323.763C421.138 323.939 421.298 324.072 421.488 324.133C421.582 324.164 421.681 324.176 421.78 324.168C421.878 324.16 421.974 324.133 422.062 324.088C422.15 324.043 422.228 323.981 422.292 323.906C422.356 323.831 422.404 323.744 422.434 323.649C429.557 301.342 416.806 293.848 416.674 293.782C409.793 289.255 384.116 281.343 367.935 287.321C364.591 288.436 361.575 290.363 359.158 292.929C356.741 295.495 354.998 298.619 354.085 302.024C354.085 302.463 355.91 313.628 348.237 342.572C346.765 348.132 367.583 357.363 371.782 359.165C371.872 359.207 371.969 359.23 372.068 359.231Z" fill="black"/>
<path d="M412.937 363.824C413.663 363.538 413.795 363.077 413.597 362.725L413.135 361.846C411.812 359.689 410.757 357.379 409.991 354.967C409.963 354.871 409.917 354.782 409.854 354.704C409.791 354.626 409.714 354.562 409.626 354.515C409.537 354.468 409.441 354.439 409.341 354.43C409.242 354.421 409.141 354.431 409.046 354.462C408.951 354.487 408.862 354.531 408.784 354.592C408.706 354.652 408.642 354.728 408.594 354.815C408.547 354.901 408.518 354.996 408.509 355.094C408.499 355.192 408.51 355.291 408.54 355.385C409.331 357.903 410.423 360.316 411.794 362.571L412.277 363.428C412.339 363.55 412.434 363.651 412.551 363.721C412.667 363.791 412.801 363.827 412.937 363.824Z" fill="black"/>
<path d="M412.937 363.824C413.099 363.827 413.257 363.776 413.388 363.681C413.519 363.586 413.615 363.451 413.663 363.297C413.718 363.104 413.696 362.898 413.602 362.722C413.507 362.545 413.347 362.412 413.157 362.352C410.175 361.374 407.284 360.139 404.517 358.659C404.429 358.613 404.333 358.585 404.234 358.576C404.135 358.567 404.035 358.578 403.94 358.607C403.845 358.637 403.757 358.685 403.68 358.748C403.604 358.812 403.541 358.89 403.495 358.978C403.449 359.066 403.42 359.162 403.411 359.261C403.402 359.36 403.413 359.46 403.442 359.555C403.472 359.65 403.52 359.738 403.584 359.814C403.647 359.891 403.725 359.954 403.813 360C406.667 361.52 409.646 362.792 412.717 363.802L412.937 363.824Z" fill="black"/>
<path d="M385.984 524.94H502.742C513.734 524.94 517.846 516.149 520.44 507.358L525.628 488.941C525.658 488.844 525.668 488.743 525.658 488.642C525.647 488.541 525.616 488.444 525.567 488.355C525.518 488.267 525.451 488.19 525.371 488.128C525.29 488.066 525.199 488.021 525.101 487.996C525.005 487.97 524.906 487.962 524.808 487.974C524.709 487.986 524.614 488.018 524.528 488.067C524.443 488.116 524.368 488.182 524.307 488.26C524.247 488.338 524.202 488.428 524.177 488.524L518.989 506.941C515.471 518.589 510.766 523.336 502.742 523.336H385.984C381.708 523.33 377.607 521.637 374.573 518.624C371.538 515.611 369.817 511.523 369.782 507.248L387.106 445.712C390.645 434.393 395.657 429.317 403.33 429.317H520.088C524.366 429.317 528.471 431.008 531.506 434.022C534.542 437.036 536.261 441.127 536.29 445.404L528.948 471.491C528.892 471.683 528.916 471.89 529.013 472.065C529.11 472.24 529.272 472.37 529.464 472.425C529.657 472.481 529.863 472.457 530.038 472.36C530.214 472.263 530.343 472.101 530.399 471.909L537.785 445.712C537.809 443.381 537.372 441.068 536.5 438.906C535.628 436.744 534.339 434.775 532.706 433.111C531.072 431.448 529.127 430.122 526.981 429.211C524.834 428.3 522.53 427.82 520.198 427.8H403.44C392.448 427.8 388.051 437.778 385.852 445.382L368.507 506.919C368.466 509.25 368.887 511.567 369.744 513.736C370.601 515.905 371.878 517.884 373.502 519.558C375.126 521.232 377.064 522.57 379.206 523.493C381.348 524.417 383.652 524.909 385.984 524.94Z" fill="black"/>
<path d="M391.282 524.94C391.481 524.94 391.671 524.861 391.811 524.721C391.951 524.581 392.03 524.391 392.03 524.193C392.03 523.992 391.952 523.8 391.813 523.656C391.673 523.513 391.483 523.429 391.282 523.424C387.085 523.495 383.029 521.907 379.995 519.006C376.961 516.105 375.196 512.125 375.08 507.929L392.404 448.591C395.943 437.602 400.956 432.767 408.628 432.767H530.047C530.247 432.767 530.44 432.689 530.583 432.549C530.727 432.41 530.81 432.22 530.816 432.02C530.816 431.816 530.735 431.62 530.591 431.476C530.446 431.332 530.251 431.251 530.047 431.251H408.628C397.636 431.251 393.239 440.899 391.041 448.151L373.673 507.622C373.69 509.915 374.16 512.183 375.055 514.295C375.949 516.407 377.251 518.322 378.887 519.93C380.522 521.539 382.459 522.809 384.586 523.669C386.713 524.528 388.988 524.96 391.282 524.94Z" fill="black"/>
<path d="M313.656 524.94H384.973C385.173 524.94 385.366 524.862 385.509 524.722C385.653 524.583 385.736 524.393 385.742 524.193C385.742 523.989 385.661 523.793 385.517 523.649C385.372 523.505 385.177 523.424 384.973 523.424H313.656C312.808 523.355 312.017 522.97 311.44 522.345C310.863 521.72 310.543 520.9 310.543 520.05C310.543 519.2 310.863 518.38 311.44 517.755C312.017 517.13 312.808 516.745 313.656 516.677H371.452C371.651 516.677 371.841 516.598 371.981 516.458C372.121 516.318 372.2 516.127 372.2 515.929C372.2 515.731 372.121 515.541 371.981 515.401C371.841 515.261 371.651 515.182 371.452 515.182H313.656C312.361 515.182 311.121 515.696 310.205 516.611C309.29 517.526 308.775 518.767 308.775 520.061C308.775 521.355 309.29 522.596 310.205 523.511C311.121 524.426 312.361 524.94 313.656 524.94Z" fill="black"/>
<path d="M366.726 516.677C367.32 516.677 367.562 516.149 367.452 515.753C367.342 515.358 364.132 502.413 357.778 500.765C349.596 499.057 341.189 498.701 332.892 499.71C331.057 500.131 329.344 500.966 327.88 502.15C326.413 503.264 325.437 504.905 325.158 506.726C324.879 508.547 325.319 510.405 326.385 511.907C327.289 513.127 327.891 514.543 328.144 516.039C328.173 516.237 328.28 516.416 328.441 516.535C328.601 516.655 328.803 516.706 329.001 516.677C329.2 516.647 329.378 516.541 329.497 516.38C329.617 516.219 329.668 516.018 329.639 515.819C329.354 514.074 328.653 512.423 327.594 511.006C326.767 509.823 326.431 508.365 326.656 506.939C326.882 505.513 327.652 504.229 328.803 503.358C330.084 502.303 331.587 501.552 333.2 501.161C341.264 500.203 349.43 500.552 357.383 502.193C362.879 503.622 365.957 515.951 366 516.061C366.022 516.236 366.109 516.396 366.244 516.51C366.378 516.624 366.55 516.683 366.726 516.677Z" fill="black"/>
<path d="M388.666 338.023C390.787 338.018 392.859 337.386 394.621 336.205C396.382 335.023 397.754 333.347 398.562 331.387C399.371 329.427 399.58 327.271 399.163 325.192C398.747 323.113 397.724 321.204 396.223 319.706C394.721 318.209 392.81 317.189 390.729 316.777C388.649 316.365 386.492 316.579 384.533 317.391C382.574 318.204 380.9 319.578 379.722 321.342C378.544 323.105 377.916 325.178 377.916 327.298C377.91 328.71 378.184 330.109 378.723 331.414C379.261 332.719 380.053 333.905 381.053 334.902C382.052 335.9 383.24 336.689 384.547 337.225C385.854 337.76 387.254 338.031 388.666 338.023ZM388.666 318.089C390.799 318.105 392.861 318.858 394.502 320.221C396.142 321.585 397.26 323.474 397.665 325.568C398.07 327.662 397.738 329.831 396.723 331.707C395.709 333.584 394.076 335.051 392.102 335.86C390.128 336.669 387.935 336.77 385.896 336.145C383.856 335.521 382.095 334.209 380.913 332.434C379.731 330.658 379.201 328.529 379.412 326.406C379.623 324.284 380.562 322.301 382.071 320.793C382.934 319.93 383.958 319.247 385.087 318.783C386.215 318.319 387.424 318.084 388.644 318.089H388.666Z" fill="black"/>
<path d="M413.245 343.429C415.372 343.429 417.451 342.798 419.219 341.616C420.988 340.434 422.366 338.755 423.179 336.79C423.992 334.825 424.204 332.663 423.787 330.577C423.37 328.492 422.344 326.577 420.839 325.075C419.333 323.573 417.416 322.551 415.329 322.139C413.242 321.727 411.08 321.943 409.116 322.76C407.152 323.576 405.474 324.957 404.295 326.728C403.117 328.498 402.49 330.578 402.495 332.704C402.506 335.549 403.643 338.273 405.657 340.283C407.672 342.292 410.399 343.423 413.245 343.429ZM413.245 323.474C415.072 323.469 416.859 324.007 418.381 325.019C419.902 326.03 421.089 327.47 421.791 329.157C422.493 330.843 422.679 332.699 422.325 334.491C421.972 336.283 421.094 337.93 419.803 339.223C418.513 340.516 416.868 341.398 415.076 341.756C413.285 342.113 411.427 341.932 409.738 341.234C408.05 340.536 406.606 339.353 405.591 337.834C404.575 336.316 404.033 334.531 404.033 332.704C404.033 330.264 405 327.922 406.722 326.193C408.444 324.463 410.781 323.485 413.223 323.474H413.245Z" fill="black"/>
<path d="M403.307 331.232C403.419 331.228 403.529 331.199 403.628 331.149C403.728 331.098 403.815 331.026 403.884 330.938C403.953 330.85 404.003 330.749 404.028 330.64C404.054 330.531 404.056 330.418 404.033 330.309C403.922 329.884 403.725 329.487 403.452 329.142C403.18 328.798 402.838 328.514 402.45 328.309C401.793 328.033 401.081 327.91 400.369 327.948C399.658 327.986 398.963 328.184 398.339 328.529C398.248 328.567 398.165 328.623 398.095 328.694C398.026 328.764 397.971 328.848 397.934 328.94C397.897 329.032 397.879 329.131 397.881 329.23C397.882 329.329 397.904 329.427 397.943 329.517C397.979 329.611 398.034 329.696 398.104 329.767C398.175 329.839 398.258 329.894 398.351 329.932C398.444 329.969 398.544 329.986 398.644 329.983C398.744 329.98 398.842 329.956 398.933 329.913C399.357 329.674 399.827 329.528 400.312 329.482C400.797 329.437 401.285 329.494 401.747 329.649C401.943 329.75 402.117 329.889 402.257 330.059C402.397 330.229 402.5 330.427 402.56 330.638C402.6 330.807 402.695 330.957 402.831 331.065C402.967 331.173 403.134 331.231 403.307 331.232Z" fill="black"/>
<path d="M309.523 521.27C309.713 521.271 309.896 521.202 310.038 521.076C310.18 520.951 310.271 520.777 310.293 520.588C310.305 520.385 310.239 520.186 310.108 520.03C309.977 519.875 309.791 519.775 309.589 519.753C298.854 519.145 288.767 514.422 281.427 506.567C265.203 489.622 264.39 461.25 272.963 443.624C312.535 362.308 362.879 366.703 363.362 366.703C363.533 366.726 363.706 366.688 363.851 366.596C363.996 366.503 364.103 366.362 364.154 366.198L367.649 356.703C367.713 356.514 367.701 356.307 367.615 356.126C367.528 355.946 367.375 355.806 367.187 355.736C367.095 355.701 366.997 355.685 366.898 355.688C366.799 355.691 366.702 355.714 366.612 355.754C366.522 355.795 366.441 355.854 366.374 355.926C366.306 355.998 366.254 356.083 366.22 356.176L362.945 365.143C357.097 364.923 309.281 365.341 271.6 442.921C262.806 461.03 263.664 490.15 280.394 507.556C288.036 515.625 298.451 520.502 309.545 521.204L309.523 521.27Z" fill="black"/>
<path d="M428.018 429.558C428.121 429.559 428.224 429.537 428.32 429.496C428.415 429.454 428.501 429.393 428.571 429.317C428.641 429.24 428.695 429.15 428.728 429.051C428.762 428.953 428.774 428.849 428.765 428.745C427.855 419.406 425.764 410.219 422.543 401.405C422.512 401.311 422.462 401.224 422.395 401.15C422.328 401.076 422.247 401.016 422.156 400.975C422.065 400.934 421.967 400.911 421.867 400.91C421.768 400.908 421.668 400.927 421.576 400.966C421.484 401 421.399 401.052 421.326 401.119C421.254 401.187 421.196 401.268 421.155 401.358C421.114 401.447 421.091 401.545 421.088 401.643C421.085 401.742 421.102 401.84 421.137 401.933C424.291 410.617 426.352 419.661 427.27 428.855C427.282 429.045 427.365 429.224 427.504 429.355C427.643 429.486 427.827 429.559 428.018 429.558Z" fill="black"/>
<path d="M361.934 505.688C362.115 505.69 362.29 505.626 362.427 505.509C362.565 505.392 362.655 505.229 362.681 505.05C364.88 491.864 353.338 486.677 339.972 480.744C332.365 477.337 324.583 473.843 318.163 468.458C315.94 466.685 314.126 464.454 312.844 461.917C311.562 459.38 310.842 456.596 310.733 453.755C309.985 437.382 327.419 419.405 327.594 419.229C327.735 419.085 327.814 418.892 327.814 418.691C327.814 418.489 327.735 418.296 327.594 418.152C327.448 418.016 327.256 417.941 327.056 417.941C326.856 417.941 326.664 418.016 326.517 418.152C325.77 418.921 308.446 436.811 309.216 453.843C309.337 456.886 310.11 459.868 311.483 462.586C312.856 465.305 314.797 467.697 317.174 469.601C323.659 475.139 331.64 478.678 339.356 482.106C352.129 487.798 363.165 492.699 361.186 504.809C361.16 505.009 361.212 505.211 361.33 505.375C361.449 505.538 361.626 505.65 361.824 505.688H361.934Z" fill="black"/>
<path d="M331.75 478.656C332.321 478.546 332.585 478.15 332.475 477.732L321.021 426.767C320.961 426.586 320.837 426.434 320.671 426.34C320.506 426.246 320.311 426.216 320.125 426.257C319.939 426.298 319.775 426.407 319.664 426.562C319.554 426.717 319.504 426.908 319.526 427.097L331.002 478.062C331.042 478.231 331.137 478.381 331.273 478.489C331.408 478.596 331.576 478.655 331.75 478.656Z" fill="black"/>
<path d="M334.256 516.677C334.456 516.677 334.648 516.599 334.792 516.459C334.935 516.32 335.02 516.129 335.025 515.929V510.874C335.851 512.232 336.445 513.717 336.784 515.27C336.799 515.368 336.835 515.462 336.888 515.546C336.942 515.63 337.012 515.702 337.094 515.758C337.177 515.813 337.27 515.851 337.368 515.87C337.466 515.888 337.566 515.886 337.663 515.863C337.762 515.845 337.857 515.807 337.941 515.751C338.025 515.696 338.097 515.624 338.152 515.539C338.208 515.455 338.245 515.361 338.263 515.261C338.281 515.162 338.279 515.06 338.257 514.962C338.147 514.413 337.069 509.468 334.541 508.369C333.508 509.05 333.508 515.797 333.508 515.797C333.488 515.906 333.494 516.018 333.522 516.124C333.551 516.23 333.603 516.329 333.674 516.413C333.746 516.497 333.835 516.564 333.936 516.61C334.036 516.655 334.145 516.678 334.256 516.677Z" fill="black"/>
<path d="M460.444 486.238C462.504 486.097 464.466 485.306 466.046 483.979C467.627 482.652 468.744 480.857 469.238 478.853C470.777 473.623 468.403 468.304 463.918 466.986C463.248 466.784 462.552 466.68 461.852 466.678C459.792 466.818 457.831 467.609 456.25 468.936C454.669 470.264 453.552 472.059 453.058 474.062C451.519 479.293 453.893 484.633 458.378 485.952C459.049 486.147 459.745 486.243 460.444 486.238ZM461.896 468.194C462.454 468.198 463.009 468.279 463.545 468.436C467.216 469.513 469.128 473.996 467.809 478.436C467.411 480.131 466.482 481.655 465.157 482.785C463.833 483.916 462.182 484.594 460.444 484.721C459.885 484.729 459.329 484.647 458.796 484.48C455.124 483.403 453.212 478.919 454.399 474.502C454.806 472.786 455.755 471.246 457.105 470.11C458.455 468.974 460.135 468.302 461.896 468.194Z" fill="black"/>
<path d="M389.414 352.901C389.612 352.901 397.372 350.835 397.372 350.835C397.54 350.763 397.677 350.633 397.758 350.469C397.839 350.305 397.858 350.117 397.813 349.94C397.768 349.763 397.661 349.607 397.512 349.501C397.362 349.395 397.18 349.346 396.998 349.363L389.897 351.253L387.105 343.253C387.072 343.159 387.021 343.073 386.954 342.999C386.887 342.925 386.807 342.865 386.717 342.822C386.627 342.779 386.53 342.755 386.431 342.749C386.331 342.744 386.232 342.759 386.138 342.792C386.044 342.825 385.958 342.876 385.884 342.943C385.81 343.009 385.749 343.09 385.707 343.18C385.664 343.269 385.639 343.367 385.634 343.466C385.629 343.566 385.643 343.665 385.676 343.759L388.71 352.396C388.76 352.543 388.855 352.67 388.981 352.761C389.107 352.851 389.259 352.9 389.414 352.901Z" fill="black"/>
<path d="M395.965 361.846C409.156 361.846 412.761 350.572 414.124 346.462L414.454 345.495C415.751 341.979 420.411 323.935 420.609 323.188C420.662 322.996 420.636 322.79 420.537 322.617C420.438 322.444 420.274 322.317 420.082 322.265C419.889 322.213 419.684 322.239 419.511 322.338C419.337 322.436 419.211 322.6 419.158 322.792C418.961 323.562 414.3 341.517 413.025 344.968L412.695 345.979C411.024 351.055 406.605 364.549 387.831 359.055C387.636 359.001 387.427 359.026 387.25 359.125C387.073 359.223 386.942 359.388 386.885 359.582C386.831 359.778 386.856 359.987 386.955 360.164C387.054 360.341 387.218 360.471 387.413 360.528C390.188 361.364 393.067 361.807 395.965 361.846Z" fill="black"/>
<path d="M465.633 428.789C466.38 428.481 466.512 428.02 466.293 427.646C434.591 373.912 397.284 369.978 390.887 369.692L392.645 361.297C392.659 361.11 392.605 360.925 392.492 360.776C392.38 360.627 392.216 360.523 392.033 360.486C391.85 360.448 391.659 360.478 391.497 360.571C391.334 360.663 391.211 360.812 391.15 360.989L389.216 370.219C390.447 371.099 430.854 370.505 464.995 428.35C465.051 428.474 465.141 428.581 465.253 428.658C465.365 428.736 465.497 428.781 465.633 428.789Z" fill="black"/>
<path d="M369.298 335.407C369.495 335.408 369.684 335.333 369.827 335.198C369.97 335.063 370.056 334.878 370.068 334.682C370.074 334.582 370.059 334.482 370.026 334.388C369.992 334.293 369.94 334.207 369.872 334.133C369.805 334.059 369.723 334 369.632 333.958C369.541 333.916 369.442 333.894 369.342 333.891C368.103 333.947 366.87 333.697 365.751 333.165C364.631 332.632 363.66 331.832 362.923 330.836C362.208 329.551 361.787 328.125 361.688 326.658C361.589 325.192 361.816 323.722 362.351 322.353C363.055 320.507 365.78 314.617 371.408 316.639C372.426 317.136 373.281 317.912 373.873 318.878C374.465 319.843 374.769 320.957 374.75 322.089C374.75 322.289 374.828 322.482 374.968 322.625C375.108 322.769 375.297 322.853 375.498 322.858C375.698 322.858 375.89 322.78 376.034 322.641C376.178 322.501 376.262 322.311 376.267 322.111C376.267 321.891 376.267 316.771 371.87 315.21C366.396 313.276 362.593 317.408 360.878 321.803C360.249 323.393 359.987 325.104 360.113 326.809C360.239 328.514 360.748 330.169 361.603 331.649C362.454 332.862 363.597 333.841 364.927 334.494C366.257 335.147 367.73 335.454 369.21 335.385L369.298 335.407Z" fill="black"/>
<path d="M365.517 329.452L372.112 328.704C372.75 327.671 369.364 318.946 369.364 318.946C369.294 318.76 369.153 318.609 368.972 318.526C368.79 318.444 368.584 318.437 368.397 318.507C368.21 318.577 368.059 318.718 367.977 318.899C367.894 319.081 367.887 319.287 367.957 319.474L370.969 327.298L365.385 327.935C365.206 327.966 365.044 328.059 364.927 328.197C364.809 328.336 364.745 328.512 364.745 328.693C364.745 328.875 364.809 329.051 364.927 329.189C365.044 329.328 365.206 329.421 365.385 329.452H365.517Z" fill="black"/>
<path d="M377.586 384.615C389.062 384.615 390.777 370.659 390.777 370.527C390.789 370.429 390.782 370.329 390.755 370.234C390.729 370.138 390.683 370.049 390.622 369.972C390.56 369.894 390.485 369.829 390.398 369.781C390.311 369.733 390.216 369.703 390.117 369.692C390.019 369.677 389.918 369.682 389.821 369.707C389.724 369.732 389.634 369.777 389.556 369.839C389.477 369.901 389.412 369.979 389.365 370.067C389.318 370.155 389.29 370.252 389.282 370.351C389.282 370.879 387.765 383.098 377.652 383.098C367.034 382.922 364.286 366.066 364.264 365.89C364.222 365.698 364.112 365.528 363.955 365.411C363.797 365.294 363.602 365.237 363.407 365.253C363.206 365.285 363.026 365.396 362.906 365.56C362.787 365.725 362.737 365.931 362.769 366.132C362.769 366.879 365.737 384.417 377.389 384.615H377.586Z" fill="black"/>
<path d="M115.534 524.94H171.396C171.6 524.94 171.796 524.859 171.94 524.715C172.085 524.57 172.166 524.375 172.166 524.171C172.16 523.971 172.077 523.781 171.933 523.641C171.789 523.501 171.596 523.424 171.396 523.424H115.534C115.334 523.424 115.141 523.501 114.998 523.641C114.854 523.781 114.77 523.971 114.765 524.171C114.765 524.375 114.846 524.57 114.99 524.715C115.134 524.859 115.33 524.94 115.534 524.94Z" fill="black"/>
<path d="M224.049 524.94H313.458C313.662 524.94 313.858 524.859 314.003 524.715C314.147 524.57 314.228 524.375 314.228 524.171C314.222 523.971 314.138 523.781 313.995 523.641C313.851 523.501 313.659 523.424 313.458 523.424H224.049C223.951 523.424 223.853 523.443 223.763 523.48C223.672 523.518 223.59 523.573 223.52 523.642C223.451 523.712 223.396 523.794 223.358 523.885C223.32 523.975 223.301 524.073 223.301 524.171C223.301 524.371 223.379 524.563 223.519 524.707C223.658 524.851 223.849 524.934 224.049 524.94Z" fill="black"/>
</g>
<defs>
<clipPath id="clip0_6_6233">
<rect width="429" height="353" fill="white" transform="matrix(-1 0 0 1 539.5 183.5)"/>
</clipPath>
</defs>
</svg>
