<svg width="30" height="30" viewBox="0 0 30 30" fill="none" xmlns="http://www.w3.org/2000/svg">
<path d="M5 9.66667C5 9.29848 5.29848 9 5.66667 9H24.3333C24.7015 9 25 9.29848 25 9.66667C25 10.0349 24.7015 10.3333 24.3333 10.3333H5.66667C5.29848 10.3333 5 10.0349 5 9.66667Z" fill="#8EBBCF"/>
<path d="M5 15.3333C5 14.9651 5.29848 14.6667 5.66667 14.6667H24.3333C24.7015 14.6667 25 14.9651 25 15.3333C25 15.7015 24.7015 16 24.3333 16H5.66667C5.29848 16 5 15.7015 5 15.3333Z" fill="#8EBBCF"/>
<path d="M5.66667 20.3333C5.29848 20.3333 5 20.6318 5 21C5 21.3682 5.29848 21.6667 5.66667 21.6667H24.3333C24.7015 21.6667 25 21.3682 25 21C25 20.6318 24.7015 20.3333 24.3333 20.3333H5.66667Z" fill="#8EBBCF"/>
</svg>
